<svg xmlns="http://www.w3.org/2000/svg" viewBox="0 0 624.57 422.81"><defs><style>.cls-1{fill:#e0e0e0;}.cls-11,.cls-2{fill:#fff;}.cls-10,.cls-3{opacity:0.3;}.cls-4{fill:#ebebeb;}.cls-5{fill:#263238;}.cls-6{fill:#455a64;}.cls-7{fill:#e8505b;}.cls-8{fill:#ffbe9d;}.cls-9{fill:#fafafa;}.cls-11,.cls-20{opacity:0.5;}.cls-12{fill:#eb996e;}.cls-13{opacity:0.2;}.cls-14{opacity:0.4;}.cls-15{opacity:0.7;}.cls-16{fill:#b78876;}.cls-17{fill:#aa6550;}.cls-18{fill:#f5f5f5;}.cls-19{opacity:0.8;}.cls-21{opacity:0.6;}</style></defs><g id="Layer_2" data-name="Layer 2"><g id="Background_Complete" data-name="Background Complete"><path class="cls-1" d="M612.37,292.15c0-.18.86-.33,1.93-.33s1.92.15,1.92.33-.86.34-1.92.34S612.37,292.34,612.37,292.15Z"/><path class="cls-1" d="M604.66,292.15c0-.18.86-.33,1.93-.33s1.93.15,1.93.33-.87.34-1.93.34S604.66,292.34,604.66,292.15Z"/><path class="cls-1" d="M597,292.15c0-.18.87-.33,1.93-.33s1.93.15,1.93.33-.86.34-1.93.34S597,292.34,597,292.15Z"/><path class="cls-1" d="M589.25,292.15c0-.18.86-.33,1.92-.33s1.93.15,1.93.33-.86.34-1.93.34S589.25,292.34,589.25,292.15Z"/><path class="cls-1" d="M581.54,292.15c0-.18.86-.33,1.93-.33s1.92.15,1.92.33-.86.34-1.92.34S581.54,292.34,581.54,292.15Z"/><path class="cls-1" d="M573.83,292.15c0-.18.86-.33,1.93-.33s1.93.15,1.93.33-.87.34-1.93.34S573.83,292.34,573.83,292.15Z"/><path class="cls-1" d="M566.12,292.15c0-.18.87-.33,1.93-.33s1.93.15,1.93.33-.86.34-1.93.34S566.12,292.34,566.12,292.15Z"/><path class="cls-1" d="M558.42,292.15c0-.18.86-.33,1.92-.33s1.93.15,1.93.33-.86.34-1.93.34S558.42,292.34,558.42,292.15Z"/><path class="cls-1" d="M550.71,292.15c0-.18.86-.33,1.93-.33s1.92.15,1.92.33-.86.34-1.92.34S550.71,292.34,550.71,292.15Z"/><path class="cls-1" d="M543,292.15c0-.18.86-.33,1.93-.33s1.93.15,1.93.33-.87.34-1.93.34S543,292.34,543,292.15Z"/><path class="cls-1" d="M535.29,292.15c0-.18.87-.33,1.93-.33s1.93.15,1.93.33-.86.34-1.93.34S535.29,292.34,535.29,292.15Z"/><path class="cls-1" d="M527.59,292.15c0-.18.86-.33,1.92-.33s1.93.15,1.93.33-.86.34-1.93.34S527.59,292.34,527.59,292.15Z"/><path class="cls-1" d="M522.1,289.94c.18,0,.33.86.33,1.92v.29l-.33-.33c.92,0,1.63.16,1.63.33s-.71.31-1.63.33h-.33v-.63C521.76,290.8,521.91,289.94,522.1,289.94Z"/><path class="cls-1" d="M522.1,282.23c.18,0,.33.86.33,1.93s-.15,1.92-.33,1.92-.34-.86-.34-1.92S521.91,282.23,522.1,282.23Z"/><path class="cls-1" d="M522.1,274.52c.18,0,.33.86.33,1.93s-.15,1.93-.33,1.93-.34-.87-.34-1.93S521.91,274.52,522.1,274.52Z"/><path class="cls-1" d="M522.1,266.81c.18,0,.33.87.33,1.93s-.15,1.93-.33,1.93-.34-.86-.34-1.93S521.91,266.81,522.1,266.81Z"/><path class="cls-1" d="M522.1,259.11c.18,0,.33.86.33,1.92s-.15,1.93-.33,1.93-.34-.86-.34-1.93S521.91,259.11,522.1,259.11Z"/><path class="cls-1" d="M522.1,251.4c.18,0,.33.86.33,1.93s-.15,1.92-.33,1.92-.34-.86-.34-1.92S521.91,251.4,522.1,251.4Z"/><path class="cls-1" d="M522.1,243.69c.18,0,.33.86.33,1.93s-.15,1.93-.33,1.93-.34-.87-.34-1.93S521.91,243.69,522.1,243.69Z"/><path class="cls-1" d="M522.1,236c.18,0,.33.87.33,1.93s-.15,1.93-.33,1.93-.34-.86-.34-1.93S521.91,236,522.1,236Z"/><path class="cls-1" d="M522.1,228.28c.18,0,.33.86.33,1.92s-.15,1.93-.33,1.93-.34-.86-.34-1.93S521.91,228.28,522.1,228.28Z"/><path class="cls-1" d="M522.1,220.57c.18,0,.33.86.33,1.93s-.15,1.92-.33,1.92-.34-.86-.34-1.92S521.91,220.57,522.1,220.57Z"/><path class="cls-1" d="M522.1,212.86c.18,0,.33.86.33,1.93s-.15,1.93-.33,1.93-.34-.87-.34-1.93S521.91,212.86,522.1,212.86Z"/><path class="cls-1" d="M522.1,205.15c.18,0,.33.87.33,1.93s-.15,1.93-.33,1.93-.34-.86-.34-1.93S521.91,205.15,522.1,205.15Z"/><path class="cls-1" d="M522.67,198c0,.1-.22.18-.57.24l.23-.24a8.38,8.38,0,0,1,.1,1.35c0,1.07-.15,1.93-.33,1.93s-.34-.86-.34-1.93a8.38,8.38,0,0,1,.1-1.35l0-.27.2,0C522.45,197.85,522.67,197.93,522.67,198Z"/><path class="cls-1" d="M530.38,198c0,.19-.86.34-1.93.34s-1.92-.15-1.92-.34.86-.33,1.92-.33S530.38,197.84,530.38,198Z"/><path class="cls-1" d="M538.09,198c0,.19-.87.34-1.93.34s-1.93-.15-1.93-.34.87-.33,1.93-.33S538.09,197.84,538.09,198Z"/><path class="cls-1" d="M545.79,198c0,.19-.86.34-1.92.34s-1.93-.15-1.93-.34.86-.33,1.93-.33S545.79,197.84,545.79,198Z"/><path class="cls-1" d="M553.5,198c0,.19-.86.34-1.92.34s-1.93-.15-1.93-.34.86-.33,1.93-.33S553.5,197.84,553.5,198Z"/><path class="cls-1" d="M561.21,198c0,.19-.86.34-1.93.34s-1.92-.15-1.92-.34.86-.33,1.92-.33S561.21,197.84,561.21,198Z"/><ellipse class="cls-1" cx="566.99" cy="198.02" rx="1.93" ry="0.33"/><path class="cls-1" d="M576.62,198c0,.19-.86.34-1.92.34s-1.93-.15-1.93-.34.86-.33,1.93-.33S576.62,197.84,576.62,198Z"/><path class="cls-1" d="M584.33,198c0,.19-.86.34-1.92.34s-1.93-.15-1.93-.34.86-.33,1.93-.33S584.33,197.84,584.33,198Z"/><path class="cls-1" d="M592,198c0,.19-.86.34-1.93.34s-1.92-.15-1.92-.34.86-.33,1.92-.33S592,197.84,592,198Z"/><path class="cls-1" d="M599.75,198c0,.19-.87.34-1.93.34s-1.93-.15-1.93-.34.87-.33,1.93-.33S599.75,197.84,599.75,198Z"/><path class="cls-1" d="M607.45,198c0,.19-.86.34-1.92.34s-1.93-.15-1.93-.34.86-.33,1.93-.33S607.45,197.84,607.45,198Z"/><path class="cls-1" d="M615.16,198c0,.19-.86.34-1.92.34s-1.93-.15-1.93-.34.86-.33,1.93-.33S615.16,197.84,615.16,198Z"/><path class="cls-1" d="M616.22,204.67c-.18,0-.33-.86-.33-1.93s.15-1.92.33-1.92.34.86.34,1.92S616.41,204.67,616.22,204.67Z"/><path class="cls-1" d="M616.22,212.38c-.18,0-.33-.86-.33-1.93s.15-1.93.33-1.93.34.87.34,1.93S616.41,212.38,616.22,212.38Z"/><path class="cls-1" d="M616.22,220.09c-.18,0-.33-.87-.33-1.93s.15-1.93.33-1.93.34.86.34,1.93S616.41,220.09,616.22,220.09Z"/><path class="cls-1" d="M616.22,227.79c-.18,0-.33-.86-.33-1.92s.15-1.93.33-1.93.34.86.34,1.93S616.41,227.79,616.22,227.79Z"/><path class="cls-1" d="M616.22,235.5c-.18,0-.33-.86-.33-1.93s.15-1.92.33-1.92.34.86.34,1.92S616.41,235.5,616.22,235.5Z"/><path class="cls-1" d="M616.22,243.21c-.18,0-.33-.86-.33-1.93s.15-1.93.33-1.93.34.87.34,1.93S616.41,243.21,616.22,243.21Z"/><path class="cls-1" d="M616.22,250.92c-.18,0-.33-.87-.33-1.93s.15-1.93.33-1.93.34.86.34,1.93S616.41,250.92,616.22,250.92Z"/><path class="cls-1" d="M616.22,258.62c-.18,0-.33-.86-.33-1.92s.15-1.93.33-1.93.34.86.34,1.93S616.41,258.62,616.22,258.62Z"/><path class="cls-1" d="M616.22,266.33c-.18,0-.33-.86-.33-1.93s.15-1.92.33-1.92.34.86.34,1.92S616.41,266.33,616.22,266.33Z"/><path class="cls-1" d="M616.22,274c-.18,0-.33-.86-.33-1.93s.15-1.93.33-1.93.34.87.34,1.93S616.41,274,616.22,274Z"/><path class="cls-1" d="M616.22,281.75c-.18,0-.33-.87-.33-1.93s.15-1.93.33-1.93.34.86.34,1.93S616.41,281.75,616.22,281.75Z"/><path class="cls-1" d="M616.22,289.45c-.18,0-.33-.86-.33-1.92s.15-1.93.33-1.93.34.86.34,1.93S616.41,289.45,616.22,289.45Z"/><rect class="cls-1" x="612.74" y="287.71" width="6.97" height="6.97"/><rect class="cls-1" x="518.61" y="288.67" width="6.97" height="6.97"/><rect class="cls-1" x="612.74" y="193.86" width="6.97" height="6.97"/><rect class="cls-1" x="518.61" y="194.54" width="6.97" height="6.97"/><rect class="cls-2" x="223.28" y="27.44" width="135.14" height="90.49"/><path class="cls-1" d="M358.42,117.92s0-.56,0-1.64,0-2.69,0-4.78c0-4.18,0-10.33-.05-18.19,0-15.72-.06-38.32-.1-65.87l.19.19-135.13.05h0l.24-.24c0,32.23,0,62.89,0,90.48l-.22-.22,97.36.11,27.81.06,7.4,0h2.57l-.63,0H355.9l-7.35,0-27.77.06-97.5.11h-.22v-.23c0-27.59,0-58.25,0-90.48V27.2h.25l135.13.05h.19v.19c0,27.6-.07,50.24-.1,66,0,7.84,0,14-.05,18.15,0,2.07,0,3.66,0,4.74S358.42,117.92,358.42,117.92Z"/><path class="cls-1" d="M223.28,35.51c0-.13,30.23-.24,67.51-.24s67.52.11,67.52.24-30.23.25-67.52.25S223.28,35.65,223.28,35.51Z"/><g class="cls-3"><path class="cls-1" d="M228.61,31.44a1.09,1.09,0,1,1-1.08-1.08A1.08,1.08,0,0,1,228.61,31.44Z"/></g><g class="cls-3"><path class="cls-1" d="M232.32,31.44a1.09,1.09,0,1,1-1.08-1.08A1.08,1.08,0,0,1,232.32,31.44Z"/></g><g class="cls-3"><path class="cls-1" d="M236,31.44a1.09,1.09,0,1,1-1.08-1.08A1.08,1.08,0,0,1,236,31.44Z"/></g><rect class="cls-1" x="234.9" y="44.95" width="36.05" height="36.05"/><path class="cls-1" d="M339.89,55.14c0,.13-14.06.24-31.4.24s-31.4-.11-31.4-.24,14.05-.24,31.4-.24S339.89,55,339.89,55.14Z"/><path class="cls-1" d="M339.89,61.84c0,.13-14.06.24-31.4.24s-31.4-.11-31.4-.24,14.05-.24,31.4-.24S339.89,61.7,339.89,61.84Z"/><path class="cls-1" d="M339.89,68.54c0,.13-14.06.24-31.4.24s-31.4-.11-31.4-.24,14.05-.24,31.4-.24S339.89,68.4,339.89,68.54Z"/><path class="cls-1" d="M314.2,75.24a9.5,9.5,0,0,1-1.46.09l-4,.08c-3.36,0-8,.07-13.13.07s-9.76,0-13.12-.07l-4-.08a9.42,9.42,0,0,1-1.45-.09,7.36,7.36,0,0,1,1.45-.1l4-.08c3.36,0,8-.07,13.12-.07s9.77,0,13.13.07l4,.08A7.42,7.42,0,0,1,314.2,75.24Z"/><rect class="cls-1" x="237.15" y="93.15" width="16.94" height="16.94"/><rect class="cls-1" x="267.88" y="93.15" width="16.94" height="16.94"/><rect class="cls-1" x="298.6" y="93.15" width="16.94" height="16.94"/><rect class="cls-1" x="329.32" y="93.15" width="16.94" height="16.94"/><polygon class="cls-1" points="13.54 30.87 116.22 30.87 116.22 179.75 14.23 179.75 13.54 30.87"/><rect class="cls-2" x="5.83" y="31.57" width="101.75" height="147.48" transform="translate(113.41 210.63) rotate(180)"/><path class="cls-1" d="M108.28,30.87V179.75H5.13V30.87Zm-1.4,147.48V32.27H6.53V178.35Z"/><rect class="cls-2" x="18.47" y="47.55" width="76.47" height="115.53"/><path class="cls-1" d="M18.47,47.55s0,.19,0,.57,0,.93,0,1.64c0,1.46,0,3.59,0,6.34,0,5.55.05,13.62.09,23.81,0,20.38.1,49.21.17,83.17l-.34-.33,76.46,0h0l-.37.36c0-43.58.06-83.76.08-115.53l.29.29L39.3,47.68l-15.38-.07-4,0-1.41,0,1.35,0,4,0,15.32-.07,55.82-.15h.29v.3c0,31.77,0,72,.07,115.53v.36h-.37l-76.46,0h-.33v-.33c.07-34,.12-63,.16-83.39,0-10.16.07-18.2.09-23.73,0-2.73,0-4.83,0-6.28,0-.69,0-1.22,0-1.6S18.47,47.55,18.47,47.55Z"/><path class="cls-1" d="M5.55,179.05a12.42,12.42,0,0,1,1.64-2.53C8.28,175,9.82,173,11.6,170.74s3.45-4.17,4.71-5.55a12.11,12.11,0,0,1,2.16-2.11c.16.14-2.77,3.68-6.3,8.11S5.71,179.18,5.55,179.05Z"/><path class="cls-1" d="M5.83,31.57C6,31.45,9,34.92,12.44,39.33s6.19,8.09,6,8.22-3.11-3.35-6.6-7.76S5.67,31.7,5.83,31.57Z"/><path class="cls-2" d="M107.6,31.69,94.27,48.13"/><path class="cls-1" d="M94.27,48.13c-.16-.12,2.7-3.91,6.38-8.45s6.79-8.12,6.95-8-2.7,3.91-6.39,8.45S94.42,48.26,94.27,48.13Z"/><path class="cls-1" d="M107.58,179.05c-.16.13-3.08-3.31-6.54-7.68s-6.12-8-6-8.13,3.08,3.32,6.53,7.68S107.74,178.93,107.58,179.05Z"/><path class="cls-1" d="M61.64,107H48.18l-1.6,3.71a8.1,8.1,0,0,0-.79,3.06,2.54,2.54,0,0,0,1.3,2.36,10.85,10.85,0,0,0,3.73.67v1H38.15v-1a5.6,5.6,0,0,0,3.37-1.7,22.39,22.39,0,0,0,3.26-5.74L58.41,79h.53L72.68,110.2c1.31,3,2.38,4.82,3.23,5.59a4.36,4.36,0,0,0,2.69,1v1H60.18v-1h.75a5.7,5.7,0,0,0,3.12-.62,1.49,1.49,0,0,0,.62-1.29,3.58,3.58,0,0,0-.17-1q-.06-.25-.84-2.1Zm-1-2.08L55,91.8l-5.85,13.12Z"/><path class="cls-1" d="M399.4,58.64a2.57,2.57,0,0,1,1.18-.14h.4l-.13.13c0-.46.07-.79.13-.79s.11.33.13.79v.12h-.53A2.83,2.83,0,0,1,399.4,58.64Z"/><path class="cls-1" d="M396.25,58.64c0-.08.35-.14.79-.14s.78.06.78.14-.35.13-.78.13S396.25,58.71,396.25,58.64Z"/><path class="cls-1" d="M393.1,58.64c0-.08.35-.14.78-.14s.79.06.79.14-.35.13-.79.13S393.1,58.71,393.1,58.64Z"/><path class="cls-1" d="M389.94,58.64c0-.08.36-.14.79-.14s.79.06.79.14-.35.13-.79.13S389.94,58.71,389.94,58.64Z"/><path class="cls-1" d="M386.79,58.64c0-.08.35-.14.79-.14s.79.06.79.14-.36.13-.79.13S386.79,58.71,386.79,58.64Z"/><path class="cls-1" d="M383.64,58.64c0-.08.35-.14.79-.14s.79.06.79.14-.36.13-.79.13S383.64,58.71,383.64,58.64Z"/><path class="cls-1" d="M380.49,58.64c0-.08.35-.14.78-.14s.79.06.79.14-.35.13-.79.13S380.49,58.71,380.49,58.64Z"/><path class="cls-1" d="M377.33,58.64c0-.08.36-.14.79-.14s.79.06.79.14-.35.13-.79.13S377.33,58.71,377.33,58.64Z"/><path class="cls-1" d="M374.18,58.64c0-.08.35-.14.79-.14s.79.06.79.14-.35.13-.79.13S374.18,58.71,374.18,58.64Z"/><path class="cls-1" d="M371,58.64c0-.08.35-.14.79-.14s.79.06.79.14-.36.13-.79.13S371,58.71,371,58.64Z"/><path class="cls-1" d="M367.88,58.64c0-.08.35-.14.79-.14s.78.06.78.14-.35.13-.78.13S367.88,58.71,367.88,58.64Z"/><path class="cls-1" d="M364.72,58.64c0-.08.36-.14.79-.14s.79.06.79.14-.35.13-.79.13S364.72,58.71,364.72,58.64Z"/><path class="cls-1" d="M361.57,58.64c0-.08.35-.14.79-.14s.79.06.79.14-.35.13-.79.13S361.57,58.71,361.57,58.64Z"/><path class="cls-1" d="M358.42,58.64c0-.08.35-.14.79-.14s.79.06.79.14-.36.13-.79.13S358.42,58.71,358.42,58.64Z"/><path class="cls-1" d="M355.27,58.64c0-.08.35-.14.79-.14s.78.06.78.14-.35.13-.78.13S355.27,58.71,355.27,58.64Z"/><path class="cls-1" d="M352.11,58.64c0-.08.36-.14.79-.14s.79.06.79.14-.35.13-.79.13S352.11,58.71,352.11,58.64Z"/><path class="cls-1" d="M349,58.64c0-.08.36-.14.79-.14s.79.06.79.14-.35.13-.79.13S349,58.71,349,58.64Z"/><path class="cls-1" d="M345.81,58.64c0-.08.35-.14.79-.14s.79.06.79.14-.36.13-.79.13S345.81,58.71,345.81,58.64Z"/><path class="cls-1" d="M344.83,56.47c.07,0,.13.35.13.78s-.06.79-.13.79-.14-.35-.14-.79S344.75,56.47,344.83,56.47Z"/><path class="cls-1" d="M344.83,53.31c.07,0,.13.36.13.79s-.06.79-.13.79-.14-.35-.14-.79S344.75,53.31,344.83,53.31Z"/><path class="cls-1" d="M344.83,50.16c.07,0,.13.35.13.79s-.06.79-.13.79-.14-.35-.14-.79S344.75,50.16,344.83,50.16Z"/><path class="cls-1" d="M344.83,47c.07,0,.13.35.13.79s-.06.79-.13.79-.14-.36-.14-.79S344.75,47,344.83,47Z"/><path class="cls-1" d="M344.83,43.86c.07,0,.13.35.13.78s-.06.79-.13.79-.14-.35-.14-.79S344.75,43.86,344.83,43.86Z"/><path class="cls-1" d="M344.83,40.7c.07,0,.13.36.13.79s-.06.79-.13.79-.14-.35-.14-.79S344.75,40.7,344.83,40.7Z"/><path class="cls-1" d="M344.83,37.55c.07,0,.13.35.13.79s-.06.79-.13.79-.14-.35-.14-.79S344.75,37.55,344.83,37.55Z"/><path class="cls-1" d="M344.83,34.4c.07,0,.13.35.13.79s-.06.79-.13.79-.14-.36-.14-.79S344.75,34.4,344.83,34.4Z"/><path class="cls-1" d="M344.83,31.25c.07,0,.13.35.13.79s-.06.78-.13.78-.14-.35-.14-.78S344.75,31.25,344.83,31.25Z"/><path class="cls-1" d="M344.83,28.09c.07,0,.13.36.13.79s-.06.79-.13.79-.14-.35-.14-.79S344.75,28.09,344.83,28.09Z"/><path class="cls-1" d="M344.83,24.94c.07,0,.13.36.13.79s-.06.79-.13.79-.14-.35-.14-.79S344.75,24.94,344.83,24.94Z"/><path class="cls-1" d="M344.83,21.79c.07,0,.13.35.13.79s-.06.79-.13.79-.14-.36-.14-.79S344.75,21.79,344.83,21.79Z"/><path class="cls-1" d="M344.83,18.64c.07,0,.13.35.13.79s-.06.78-.13.78-.14-.35-.14-.78S344.75,18.64,344.83,18.64Z"/><path class="cls-1" d="M344.83,15.49c.07,0,.13.35.13.78s-.06.79-.13.79-.14-.35-.14-.79S344.75,15.49,344.83,15.49Z"/><path class="cls-1" d="M344.83,12.33c.07,0,.13.36.13.79s-.06.79-.13.79-.14-.35-.14-.79S344.75,12.33,344.83,12.33Z"/><path class="cls-1" d="M344.83,9.18c.07,0,.13.35.13.79s-.06.79-.13.79-.14-.36-.14-.79S344.75,9.18,344.83,9.18Z"/><path class="cls-1" d="M344.83,6c.07,0,.13.35.13.79s-.06.78-.13.78-.14-.35-.14-.78S344.75,6,344.83,6Z"/><path class="cls-1" d="M344.83,2.88c.07,0,.13.35.13.78s-.06.79-.13.79-.14-.35-.14-.79S344.75,2.88,344.83,2.88Z"/><path class="cls-1" d="M347.59,2.48c0,.08-.36.14-.79.14s-.79-.06-.79-.14.35-.13.79-.13S347.59,2.41,347.59,2.48Z"/><path class="cls-1" d="M350.74,2.48c0,.08-.35.14-.79.14s-.79-.06-.79-.14.36-.13.79-.13S350.74,2.41,350.74,2.48Z"/><path class="cls-1" d="M353.89,2.48c0,.08-.35.14-.79.14s-.78-.06-.78-.14.35-.13.78-.13S353.89,2.41,353.89,2.48Z"/><path class="cls-1" d="M357,2.48c0,.08-.35.14-.78.14s-.79-.06-.79-.14.35-.13.79-.13S357,2.41,357,2.48Z"/><path class="cls-1" d="M360.2,2.48c0,.08-.36.14-.79.14s-.79-.06-.79-.14.35-.13.79-.13S360.2,2.41,360.2,2.48Z"/><path class="cls-1" d="M363.35,2.48c0,.08-.35.14-.79.14s-.79-.06-.79-.14.36-.13.79-.13S363.35,2.41,363.35,2.48Z"/><path class="cls-1" d="M366.5,2.48c0,.08-.35.14-.79.14s-.78-.06-.78-.14.35-.13.78-.13S366.5,2.41,366.5,2.48Z"/><path class="cls-1" d="M369.65,2.48c0,.08-.35.14-.78.14s-.79-.06-.79-.14.35-.13.79-.13S369.65,2.41,369.65,2.48Z"/><path class="cls-1" d="M372.81,2.48c0,.08-.36.14-.79.14s-.79-.06-.79-.14.35-.13.79-.13S372.81,2.41,372.81,2.48Z"/><path class="cls-1" d="M376,2.48c0,.08-.35.14-.79.14s-.79-.06-.79-.14.36-.13.79-.13S376,2.41,376,2.48Z"/><path class="cls-1" d="M379.11,2.48c0,.08-.35.14-.79.14s-.78-.06-.78-.14.35-.13.78-.13S379.11,2.41,379.11,2.48Z"/><path class="cls-1" d="M382.26,2.48c0,.08-.35.14-.78.14s-.79-.06-.79-.14.35-.13.79-.13S382.26,2.41,382.26,2.48Z"/><path class="cls-1" d="M385.42,2.48c0,.08-.36.14-.79.14s-.79-.06-.79-.14.35-.13.79-.13S385.42,2.41,385.42,2.48Z"/><path class="cls-1" d="M388.57,2.48c0,.08-.35.14-.79.14s-.79-.06-.79-.14.36-.13.79-.13S388.57,2.41,388.57,2.48Z"/><path class="cls-1" d="M391.72,2.48c0,.08-.35.14-.79.14s-.79-.06-.79-.14.36-.13.79-.13S391.72,2.41,391.72,2.48Z"/><path class="cls-1" d="M394.87,2.48c0,.08-.35.14-.78.14s-.79-.06-.79-.14.35-.13.79-.13S394.87,2.41,394.87,2.48Z"/><path class="cls-1" d="M398,2.48c0,.08-.36.14-.79.14s-.79-.06-.79-.14.35-.13.79-.13S398,2.41,398,2.48Z"/><path class="cls-1" d="M401,2.69s-.07-.08-.09-.21l.09.09a3.09,3.09,0,0,1-.59.05c-.43,0-.79-.06-.79-.14s.36-.13.79-.13a4.42,4.42,0,0,1,.59,0l.1,0v.07C401,2.61,401,2.69,401,2.69Z"/><path class="cls-1" d="M401,5.84c-.08,0-.14-.36-.14-.79s.06-.79.14-.79.13.35.13.79S401.05,5.84,401,5.84Z"/><path class="cls-1" d="M401,9c-.08,0-.14-.35-.14-.79s.06-.79.14-.79.13.36.13.79S401.05,9,401,9Z"/><path class="cls-1" d="M401,12.14c-.08,0-.14-.35-.14-.79s.06-.78.14-.78.13.35.13.78S401.05,12.14,401,12.14Z"/><path class="cls-1" d="M401,15.3c-.08,0-.14-.36-.14-.79s.06-.79.14-.79.13.35.13.79S401.05,15.3,401,15.3Z"/><path class="cls-1" d="M401,18.45c-.08,0-.14-.36-.14-.79s.06-.79.14-.79.13.35.13.79S401.05,18.45,401,18.45Z"/><path class="cls-1" d="M401,21.6c-.08,0-.14-.35-.14-.79s.06-.79.14-.79.13.36.13.79S401.05,21.6,401,21.6Z"/><path class="cls-1" d="M401,24.75c-.08,0-.14-.35-.14-.79s.06-.78.14-.78.13.35.13.78S401.05,24.75,401,24.75Z"/><path class="cls-1" d="M401,27.9c-.08,0-.14-.35-.14-.78s.06-.79.14-.79.13.35.13.79S401.05,27.9,401,27.9Z"/><path class="cls-1" d="M401,31.06c-.08,0-.14-.36-.14-.79s.06-.79.14-.79.13.35.13.79S401.05,31.06,401,31.06Z"/><path class="cls-1" d="M401,34.21c-.08,0-.14-.35-.14-.79s.06-.79.14-.79.13.36.13.79S401.05,34.21,401,34.21Z"/><path class="cls-1" d="M401,37.36c-.08,0-.14-.35-.14-.79s.06-.78.14-.78.13.35.13.78S401.05,37.36,401,37.36Z"/><path class="cls-1" d="M401,40.51c-.08,0-.14-.35-.14-.78s.06-.79.14-.79.13.35.13.79S401.05,40.51,401,40.51Z"/><path class="cls-1" d="M401,43.67c-.08,0-.14-.36-.14-.79s.06-.79.14-.79.13.35.13.79S401.05,43.67,401,43.67Z"/><path class="cls-1" d="M401,46.82c-.08,0-.14-.35-.14-.79s.06-.79.14-.79.13.36.13.79S401.05,46.82,401,46.82Z"/><path class="cls-1" d="M401,50c-.08,0-.14-.35-.14-.79s.06-.78.14-.78.13.35.13.78S401.05,50,401,50Z"/><path class="cls-1" d="M401,53.12c-.08,0-.14-.35-.14-.78s.06-.79.14-.79.13.35.13.79S401.05,53.12,401,53.12Z"/><path class="cls-1" d="M401,56.28c-.08,0-.14-.36-.14-.79s.06-.79.14-.79.13.35.13.79S401.05,56.28,401,56.28Z"/><rect class="cls-1" x="398.9" y="55.99" width="4.16" height="4.16"/><rect class="cls-1" x="342.75" y="56.56" width="4.16" height="4.16"/><rect class="cls-1" x="398.9" width="4.16" height="4.16"/><rect class="cls-1" x="342.75" y="0.4" width="4.16" height="4.16"/><path class="cls-4" d="M600.5,57.68h-3.37L589.8,47.45V40.74s-5.2-.32-4.59,8.47-.05,6.55-.05,6.55-11,0-11.95,1c-.67.7-1,11.66-1.09,17.61a6.44,6.44,0,0,0,4.56,6.48,4.93,4.93,0,0,0,1.19.16c2.75,0,16.82-2.24,16.82-2.24h5.81Z"/><polygon class="cls-4" points="610.12 55.84 608.05 78.84 602.3 78.84 602.3 56.3 610.12 55.84"/></g><g id="Floor"><path class="cls-5" d="M619.62,422.55c0,.14-137.13.26-306.24.26s-306.27-.12-306.27-.26,137.1-.26,306.27-.26S619.62,422.41,619.62,422.55Z"/></g><g id="Character_3" data-name="Character 3"><path class="cls-5" d="M491.69,305.37c1-.21,9.15,37.16,8.09,51.7s-8.09,65.05-8.09,65.05H458L452,350.63l1.14,71.49h-45.2s-10.48-49.14-8.61-64,11.82-54,11.82-54Z"/><path class="cls-6" d="M455.36,314a6.75,6.75,0,0,1,.07,1.4c0,.9,0,2.2,0,3.81-.08,3.21-.28,7.65-.69,12.54s-1,9.3-1.43,12.49c-.24,1.59-.44,2.87-.61,3.75a6.69,6.69,0,0,1-.3,1.37,6.57,6.57,0,0,1,.1-1.39c.12-1,.27-2.26.44-3.78.38-3.19.86-7.6,1.28-12.48s.67-9.31.84-12.52c.08-1.53.15-2.8.2-3.8A8,8,0,0,1,455.36,314Z"/><path class="cls-6" d="M461.44,317a1.33,1.33,0,0,1,.74,0,3,3,0,0,1,1.75,1.05,3.17,3.17,0,0,1,.67,1.29,2.8,2.8,0,0,1-.13,1.68,3.3,3.3,0,0,1-3,2.11,3.26,3.26,0,0,1-2.92-2.23,2.86,2.86,0,0,1-.07-1.68,3,3,0,0,1,.74-1.26,2.77,2.77,0,0,1,1.85-.86,1.23,1.23,0,0,1,.74.15c0,.05-.27,0-.72.05a2.74,2.74,0,0,0-1.6.91,2.46,2.46,0,0,0-.49,2.53,2.81,2.81,0,0,0,2.48,1.87,2.88,2.88,0,0,0,2.57-1.77,2.55,2.55,0,0,0-.39-2.56,3.06,3.06,0,0,0-1.51-1.08C461.7,317.05,461.44,317.05,461.44,317Z"/><path class="cls-6" d="M496.69,323.27a2.82,2.82,0,0,1-.88.34,13.55,13.55,0,0,1-2.52.46,15.9,15.9,0,0,1-14.7-7,14.31,14.31,0,0,1-1.24-2.25,2.94,2.94,0,0,1-.29-.89c.08,0,.57,1.21,1.83,2.93a16.56,16.56,0,0,0,14.37,6.81C495.39,323.59,496.67,323.18,496.69,323.27Z"/><path class="cls-5" d="M419.78,144.08c-2.55,9.28-6.41,16.72-10.17,20.45s-7.8,8.11-7.66,13.4c.05,2.08.75,4.29-.16,6.16-1.18,2.44-4.33,3-6.69,4.29a11.2,11.2,0,0,0-5.28,10.1,16.24,16.24,0,0,0,5,10.61c2.92,2.95,7.56,5,11.2,3,2.2-1.21,3.45-3.59,4.55-5.84q8.61-17.49,15.57-35.72"/><path class="cls-5" d="M443.24,104.34a23.91,23.91,0,0,1,41.67,16.25c-.06,6.22-2.5,12.73,0,18.44,1.74,4,5.76,7.09,6.31,11.45.64,5.06-3.69,9.65-3.46,14.75.15,3.32,2.23,6.26,4.63,8.57s5.19,4.21,7.39,6.71c6.12,7,6.51,17.92,1.89,25.94s-13.55,13.05-22.74,14.14-18.56-1.45-26.7-5.86c-5.3-2.88-10.27-6.67-13.43-11.81s-4.23-11.8-1.74-17.3"/><path class="cls-1" d="M462.78,181.8s20.75,6.12,22.77,9.41S494.08,233,494.08,233l-12.74,45.37s10.53,17,11.06,25.53c-23.54,15.19-50.11,10.93-77.91-1.24l-2-44.37-2.65-70.87,17.13-6Z"/><path class="cls-7" d="M485.84,287.54a4,4,0,0,1-.76,0l-2.18-.15-8-.63-26.4-2.31L422.12,282l-8-.81-2.17-.24-.76-.12a3.4,3.4,0,0,1,.76,0l2.18.15,8,.64,26.4,2.3,26.38,2.46,8,.8,2.17.25A3.51,3.51,0,0,1,485.84,287.54Z"/><path class="cls-7" d="M461.51,237.55c0,.15-9.11.26-20.35.26s-20.36-.11-20.36-.26,9.11-.26,20.36-.26S461.51,237.41,461.51,237.55Z"/><path class="cls-7" d="M488.9,207.11a10.32,10.32,0,0,1-1.62.15l-4.41.25c-3.72.21-8.86.52-14.53,1s-10.8.92-14.52,1.28l-4.39.42a10.27,10.27,0,0,1-1.62.1,8.94,8.94,0,0,1,1.59-.3c1-.15,2.53-.36,4.38-.58,3.71-.46,8.84-1,14.52-1.44s10.83-.68,14.56-.79c1.86-.06,3.37-.09,4.41-.09A9.45,9.45,0,0,1,488.9,207.11Z"/><path class="cls-1" d="M485.55,191.21l20.81,56.47,14-27.83,18.25,3.75-10.51,43.85a18.58,18.58,0,0,1-14.66,15.63h0a18.58,18.58,0,0,1-17.5-5.68l-6.54-7.17Z"/><path class="cls-7" d="M505.93,283.35a6.78,6.78,0,0,1-.15-1.41c-.06-.92-.13-2.24-.18-3.87-.12-3.28-.16-7.8,0-12.79s.46-9.51.76-12.77c.16-1.63.3-2.95.42-3.85a6.81,6.81,0,0,1,.23-1.41,8.66,8.66,0,0,1,0,1.43c-.07,1-.15,2.3-.25,3.86-.21,3.26-.46,7.77-.61,12.75s-.15,9.5-.14,12.77c0,1.56,0,2.86,0,3.87A7.14,7.14,0,0,1,505.93,283.35Z"/><path class="cls-7" d="M532.83,248.9c-.05.13-5.17-1.69-11.43-4.07s-11.29-4.41-11.24-4.55,5.17,1.69,11.43,4.07S532.88,248.76,532.83,248.9Z"/><polygon class="cls-8" points="542.97 217.14 534.21 223.59 524.49 221.21 526.82 218.62 542.97 217.14"/><polygon class="cls-9" points="574.64 138.54 503.77 169.25 504.11 189.79 496.09 198.19 523.17 222.4 531.08 213.55 552.15 210.6 574.64 138.54"/><path class="cls-5" d="M574.64,138.55l-22.26,72.12,0,.14-.15,0-21.07,3,.15-.08-7.91,8.85-.17.19-.19-.17-13.82-12.35-13.26-11.85-.2-.18.19-.19,8-8.4-.07.18c-.12-7.11-.23-14-.33-20.54v-.16l.14-.07,71-30.48-70.78,30.92.15-.22c.11,6.57.23,13.43.36,20.54v.1l-.07.08-8,8.4,0-.37,13.26,11.85,13.82,12.35-.36,0,7.91-8.85.06-.07h.1l21.07-2.94-.19.17C565.29,168.2,574,140.55,574.64,138.55Z"/><path class="cls-5" d="M545.89,188.85a11.12,11.12,0,1,1-.88-15.7A11.11,11.11,0,0,1,545.89,188.85Z"/><path class="cls-5" d="M574.64,138.54c.11.1-8.09,9.78-18.32,21.62s-18.61,21.38-18.72,21.28,8.09-9.77,18.32-21.62S574.54,138.45,574.64,138.54Z"/><path class="cls-7" d="M356.31,383.44h0a17.73,17.73,0,0,1-1.47-24.95L488.1,207.7l26.43,23.62L381.4,382A17.72,17.72,0,0,1,356.31,383.44Z"/><rect class="cls-7" x="499.11" y="193.46" width="14.48" height="41.68" transform="translate(9.13 449.02) rotate(-48.21)"/><rect class="cls-7" x="570.13" y="135.07" width="7.72" height="7.72" transform="translate(223.29 -336.23) rotate(39.96)"/><path class="cls-7" d="M622.91,178.53c-.25.31-22.87-18.22-50.51-41.38S522.56,95,522.82,94.65s22.86,18.23,50.51,41.39S623.17,178.23,622.91,178.53Z"/><path class="cls-7" d="M624,179.48a2.29,2.29,0,1,1-.29-3.22A2.28,2.28,0,0,1,624,179.48Z"/><path class="cls-7" d="M524.57,96.12a2.29,2.29,0,1,1-.29-3.22A2.28,2.28,0,0,1,524.57,96.12Z"/><polygon class="cls-10" points="488.1 207.7 514.53 231.32 510.96 235.36 486.83 209.14 488.1 207.7"/><polygon class="cls-11" points="504.16 202.63 504.16 221.53 508 225.49 508 206.06 504.16 202.63"/><path class="cls-8" d="M535.87,193.81l9.7,3.88,2.07,7.81L543,217.14l-17.14,2.49,5-5.13-.64-4.47s-4.79-1.5-4.9-2.23.59-3.18,1.32-3.3,5.75,1.75,5.75,1.75-5.93-4.7-5.77-5.46.81-2.68,2-2.9,10.76,4.31,10.76,4.31l1.56,3.54,1.36-5.67S533.76,197.68,535.87,193.81Z"/><path class="cls-12" d="M534.65,212.14c.05,0,.23-.34.32-1a5.25,5.25,0,0,0-1.66-4.49c-.48-.42-.85-.58-.88-.52a10.4,10.4,0,0,1,1.78,2.74A10.79,10.79,0,0,1,534.65,212.14Z"/><path class="cls-12" d="M539.26,210.44a18.93,18.93,0,0,1-.39-2.54,10.72,10.72,0,0,0-.49-2.81,4,4,0,0,0-.89-1.5,4.38,4.38,0,0,0-1.58-1c-2.32-.84-4.41-1.52-5.94-2a14.54,14.54,0,0,0-2.51-.69,12.55,12.55,0,0,0,2.39,1c1.49.57,3.59,1.32,5.87,2.14a4.07,4.07,0,0,1,1.42.88,3.86,3.86,0,0,1,.81,1.32,12.5,12.5,0,0,1,.57,2.69A5.07,5.07,0,0,0,539.26,210.44Z"/><path class="cls-12" d="M541.48,208.69c.14,0,.11-.88-.06-1.91s-.42-1.85-.56-1.83a3.88,3.88,0,0,0,.06,1.91C541.1,207.89,541.34,208.71,541.48,208.69Z"/><path class="cls-8" d="M468.71,278s15.56-5.34,15.92-5.52,11-5.11,10.08-8c0,0,3-2.39,2.1-3.74l-4.26,1.79s6-3.9,5-7.42c0,0,.62-1.19,0-1.92s-3.77,1.48-6.08,2.88l-4.48,1.81a9.4,9.4,0,0,1-6.15.29h0a1.92,1.92,0,0,1-1.34-2.28,19.6,19.6,0,0,0-.33-10.49s-1.1.4-1.87,2.79c-1,3.08-4.05,5.44-5.17,7.47l-2.43,4.37a4.76,4.76,0,0,1-2.94,2.29l1.07,8.11Z"/><path class="cls-12" d="M485.58,263.31a2.17,2.17,0,0,0,.53-.16c.34-.13.83-.32,1.42-.58a33.94,33.94,0,0,0,4.45-2.42,33.3,33.3,0,0,0,4-3.08c.48-.43.86-.8,1.11-1.06a2.7,2.7,0,0,0,.37-.42s-.17.11-.44.35-.66.58-1.16,1a41.35,41.35,0,0,1-4,3,42,42,0,0,1-4.38,2.47l-1.39.65A3.53,3.53,0,0,0,485.58,263.31Z"/><path class="cls-12" d="M485.85,266.41A4.28,4.28,0,0,0,487,266a19.7,19.7,0,0,0,2.59-1.31,24.61,24.61,0,0,0,2.4-1.65,5.34,5.34,0,0,0,.91-.78c-.05-.07-1.52,1-3.44,2.21-1,.58-1.87,1.05-2.53,1.37A6.18,6.18,0,0,0,485.85,266.41Z"/><path class="cls-12" d="M485.71,270.13a7.14,7.14,0,0,0,1.46-.56,26.65,26.65,0,0,0,3.33-1.79,35.23,35.23,0,0,0,3.06-2.22,9.15,9.15,0,0,0,1.15-1.05,10.85,10.85,0,0,0-1.27.91c-.77.57-1.84,1.35-3.08,2.14s-2.41,1.41-3.27,1.85A12.09,12.09,0,0,0,485.71,270.13Z"/><path class="cls-1" d="M468.71,278,411,295.35a34.45,34.45,0,0,1-20.1-34.44c1.81-20.4,4.22-47.24,4.93-54,1.18-11.23,14.05-19.5,14.05-19.5,17.71,1.15,13.78,36.16,13.78,36.16l-7.12,40.27,50.18-2Z"/><path class="cls-5" d="M416.53,263.87a8.87,8.87,0,0,1,.07-1.61c.06-1,.23-2.53.44-4.37.46-3.68,1.24-8.74,2.27-14.3s2.08-10.56,2.89-14.18c.41-1.8.75-3.26,1-4.27a9.16,9.16,0,0,1,.45-1.54,9.61,9.61,0,0,1-.25,1.59c-.21,1.1-.5,2.55-.84,4.3-.72,3.63-1.71,8.65-2.74,14.2s-1.86,10.59-2.41,14.25c-.25,1.76-.45,3.22-.61,4.34A10.78,10.78,0,0,1,416.53,263.87Z"/><path class="cls-5" d="M466.71,261.85a1.82,1.82,0,0,1-.54.09l-1.57.13c-1.36.1-3.33.23-5.78.35-4.88.25-11.62.49-19.07.7l-19.08.55-5.78.18-1.58,0a2,2,0,0,1-.55,0,3.56,3.56,0,0,1,.55-.08l1.57-.13c1.36-.1,3.33-.23,5.77-.35,4.88-.25,11.63-.49,19.08-.7l19.08-.55,5.78-.18,1.57,0A3.33,3.33,0,0,1,466.71,261.85Z"/><path class="cls-7" d="M418.71,248.6a4.3,4.3,0,0,1-1.06,0l-2.87-.21c-2.43-.19-5.78-.42-9.49-.58s-7.07-.2-9.5-.22l-2.89,0a4,4,0,0,1-1.06-.07,4.69,4.69,0,0,1,1.06-.13c.68-.05,1.66-.1,2.88-.14,2.44-.07,5.81-.08,9.53.07s7.08.45,9.5.73c1.21.14,2.19.27,2.86.38A3.89,3.89,0,0,1,418.71,248.6Z"/><path class="cls-7" d="M423.65,220.81c0,.14-6.55,0-14.6-.35s-14.59-.73-14.59-.87,6.55,0,14.61.35S423.66,220.67,423.65,220.81Z"/><path class="cls-7" d="M396.29,282.05a4.28,4.28,0,0,1,.56-.93c.38-.58,1-1.39,1.74-2.36a59.4,59.4,0,0,1,14.26-13c1-.68,1.9-1.19,2.51-1.52a4.41,4.41,0,0,1,1-.47c0,.07-1.26.88-3.28,2.29a75,75,0,0,0-7.52,6,76.37,76.37,0,0,0-6.67,6.94C397.28,280.87,396.36,282.1,396.29,282.05Z"/><path class="cls-7" d="M437.71,287.54c-.14,0-1.12-5.4-2.17-12.11s-1.8-12.16-1.66-12.18,1.11,5.39,2.17,12.1S437.85,287.52,437.71,287.54Z"/><g class="cls-3"><path d="M410.64,295.35l64.65-19.62c-4.85,6.37-14.28,12.32-21.4,16s-14.73,6.26-22.31,8.83c-4.13,1.4-8.34,2.82-12.7,2.78s-8.59-1.28-10.88-5Z"/></g><path class="cls-5" d="M421.79,129.17a6.83,6.83,0,0,0-2.38-8.13,7.37,7.37,0,0,0-8.57.44,8,8,0,0,0-2.45,8.32,8.15,8.15,0,0,0,15.85-1.15"/><path class="cls-8" d="M431.45,112.29l0,4.72-1,70.72c-.12,8.2,6.85,14.84,15.64,14.9h0c8.88.06,16.28-6.61,16.53-14.9.27-8.7.71-17.86.71-17.86s11.26-1.55,14-16.12c1.35-7.24,1.31-19.18,1-28.94a15.45,15.45,0,0,0-16.64-14.87Z"/><path class="cls-5" d="M473.3,133.32a1.88,1.88,0,0,1-1.87,1.84,1.79,1.79,0,0,1-1.88-1.74,1.87,1.87,0,0,1,1.86-1.84A1.8,1.8,0,0,1,473.3,133.32Z"/><path class="cls-5" d="M475.49,130.94c-.24.24-1.63-.85-3.65-.9s-3.53.92-3.74.66c-.1-.11.15-.54.8-1a5.18,5.18,0,0,1,3-.83,4.92,4.92,0,0,1,2.89,1C475.41,130.39,475.61,130.84,475.49,130.94Z"/><path class="cls-5" d="M453.54,133.13a1.87,1.87,0,0,1-1.86,1.84,1.8,1.8,0,0,1-1.89-1.74,1.89,1.89,0,0,1,1.86-1.85A1.8,1.8,0,0,1,453.54,133.13Z"/><path class="cls-5" d="M455.64,130.77c-.24.24-1.64-.85-3.65-.9s-3.53.92-3.74.66.14-.54.8-1a5.17,5.17,0,0,1,3-.83,5,5,0,0,1,2.9,1C455.56,130.22,455.76,130.67,455.64,130.77Z"/><path class="cls-5" d="M462.55,145.94a14.14,14.14,0,0,1,3.3-.5c.51,0,1-.13,1.1-.47a2.66,2.66,0,0,0-.3-1.54l-1.42-4c-2-5.65-3.37-10.28-3.14-10.36s2,4.44,4,10.08c.47,1.4.92,2.72,1.35,4a3,3,0,0,1,.21,2,1.29,1.29,0,0,1-.87.73,3.65,3.65,0,0,1-.88.1A13,13,0,0,1,462.55,145.94Z"/><path class="cls-12" d="M463.29,169.87a37.26,37.26,0,0,1-19.45-5.77s4.48,10.18,19.15,9.22Z"/><path class="cls-12" d="M461.56,150.78a3.65,3.65,0,0,0-3.22-1.44,3.32,3.32,0,0,0-2.33,1.17,2.1,2.1,0,0,0-.22,2.4,2.42,2.42,0,0,0,2.62.74,7.5,7.5,0,0,0,2.63-1.46,2.33,2.33,0,0,0,.59-.58.7.7,0,0,0,0-.76"/><path class="cls-5" d="M456.57,147.18c.33,0,.27,2.18,2.11,3.78s4.17,1.43,4.18,1.74c0,.14-.53.41-1.52.41a5.43,5.43,0,0,1-3.49-1.32,4.78,4.78,0,0,1-1.63-3.18C456.16,147.7,456.42,147.16,456.57,147.18Z"/><path class="cls-5" d="M456.38,122.88c-.22.54-2.22.22-4.6.44s-4.31.82-4.61.31c-.13-.23.21-.74,1-1.25a7.66,7.66,0,0,1,3.44-1.1,7.53,7.53,0,0,1,3.57.52C456,122.17,456.47,122.62,456.38,122.88Z"/><path class="cls-5" d="M474.91,125.08c-.37.45-1.75-.07-3.42-.13s-3.09.22-3.41-.27c-.13-.24.1-.69.73-1.11a5,5,0,0,1,5.5.32C474.89,124.38,475.07,124.86,474.91,125.08Z"/><path class="cls-5" d="M449.84,107.66c3.91,5.2-.16,12.55-4.66,17.25s-10,10.13-8.76,16.52c1.42,7.4,11.55,12.14,10,19.53-.54,2.7-2.67,5-2.68,7.75,0,5,6.41,7.38,8.26,12,2.53,6.32-4.44,12.62-4.54,19.42-.06,3.87,2.13,7.47,2.24,11.33.24,7.92-9.12,13.71-16.79,11.77S420,213.78,418.34,206s.86-18.62,2.1-26.44l-13.3,3.08c-2.47-2.36.91-4.87,1.47-8.25,1.4-8.46,7-15.63,9.61-23.79,2.32-7.13,2.33-14.77,3.34-22.2s3.32-15.18,9-20.08,15.5-5.51,20.09.42"/><path class="cls-6" d="M420,131.69a23.58,23.58,0,0,0,5.86.17,24.92,24.92,0,0,0,12.72-5.76,53.3,53.3,0,0,0,9.3-10.71l2.44-3.57a9.62,9.62,0,0,1,.94-1.29,9.75,9.75,0,0,1-.77,1.4c-.53.87-1.3,2.14-2.31,3.67a49.44,49.44,0,0,1-9.26,10.9,24.44,24.44,0,0,1-13,5.73,16.43,16.43,0,0,1-4.35-.15,10.79,10.79,0,0,1-1.16-.26A1.71,1.71,0,0,1,420,131.69Z"/><path class="cls-6" d="M437.36,133.65a8.4,8.4,0,0,1-2.14,1.49,18.13,18.13,0,0,1-6,2,17.85,17.85,0,0,1-6.28-.18,7.81,7.81,0,0,1-2.48-.82c0-.08,1,.21,2.54.46a20.54,20.54,0,0,0,12-1.76C436.49,134.13,437.31,133.57,437.36,133.65Z"/><path class="cls-6" d="M484.9,123.81a8.74,8.74,0,0,1-7.81-4.63,20.91,20.91,0,0,0,3.52,3A21.48,21.48,0,0,0,484.9,123.81Z"/><path class="cls-6" d="M484,128.74a4,4,0,0,1-2.79.07,4,4,0,0,1-2.43-1.37c.09-.13,1.13.52,2.56.87S484,128.59,484,128.74Z"/><path class="cls-7" d="M421.12,134.87a11,11,0,0,1-.42-4.85,10.7,10.7,0,0,1,1.27-4.7c.15.05-.53,2.11-.75,4.75S421.28,134.85,421.12,134.87Z"/></g><g id="Character_2" data-name="Character 2"><path class="cls-5" d="M282.9,303.71c-1-.22-9.07,37.7-8,52.44s8,66,8,66h82.92s10.37-49.86,8.52-65-11.69-54.81-11.69-54.81Z"/><path class="cls-8" d="M272.29,232l-11.85-53.35-.68-8.83S257,150,257,148.09c0-2.24-1.11-2.76-1.93-2.7-1.29.1-2.18,1.69-2.22,3.61,0,.67.18,11.15.18,11.15a22.64,22.64,0,0,0-2.06-2.81c-1.57-2-5.22-3-8.95-2.87s-4.77.54-4.77,2a1.83,1.83,0,0,0,.75,1.4,3.66,3.66,0,0,0,2.47.83c6-.18,7.63,3,7.63,3l.09,1.16s-3.67-2.56-6.55-1.43a3.37,3.37,0,0,0-1.15.72,4.69,4.69,0,0,0-4,7,1.92,1.92,0,0,0,1.89,1.15,2.41,2.41,0,0,0,1-.65,3.35,3.35,0,0,1,.53-.4l.71,3.2s2,7.11,2.47,10.3l3.17,52.88A13.13,13.13,0,0,0,260.49,248h0A13.13,13.13,0,0,0,272.29,232Z"/><path class="cls-8" d="M258.71,178a2.73,2.73,0,0,1-2.83-1.45c-.6-1-.86-2.1-1.39-3.11-1.6-3-5.38-4.41-6.83-7.5-.2-.43-.31-1,.06-1.31s.85-.06,1.24.15l9.93,5.35"/><path class="cls-12" d="M258.89,170.09a4.57,4.57,0,0,0-1-.69c-.67-.4-1.65-1-2.88-1.67l-4.31-2.4-1.24-.68a2.25,2.25,0,0,0-1.64-.45,1,1,0,0,0-.64.85,1.93,1.93,0,0,0,.18.91,7.57,7.57,0,0,0,.86,1.42c1.39,1.76,3.16,2.86,4.45,4.14a8.28,8.28,0,0,1,1.59,2c.38.69.62,1.42.92,2.07a4,4,0,0,0,2.31,2.44,1.45,1.45,0,0,0,1.24-.06,3.27,3.27,0,0,1-1.15-.18,3.81,3.81,0,0,1-2-2.37c-.26-.64-.48-1.39-.87-2.16a8.65,8.65,0,0,0-1.64-2.15c-1.32-1.36-3.08-2.48-4.36-4.11a6.86,6.86,0,0,1-.78-1.28c-.2-.43-.18-.86.07-.91s.72.15,1.14.39l1.26.66,4.38,2.28c1.25.64,2.26,1.15,3,1.49A4.46,4.46,0,0,0,258.89,170.09Z"/><path class="cls-12" d="M248.36,162.9a4.92,4.92,0,0,0-.71-2,3.6,3.6,0,0,0-1.84-1.3,9.23,9.23,0,0,0-2.83-.38,14.77,14.77,0,0,1-3-.22,4.82,4.82,0,0,1-2.22-1.08,1.83,1.83,0,0,1-.6-1.54,1,1,0,0,1,.19-.58s0,.22,0,.59a1.74,1.74,0,0,0,.64,1.32,4.69,4.69,0,0,0,2.09.91,16.37,16.37,0,0,0,2.89.19,8.8,8.8,0,0,1,3,.43,3.76,3.76,0,0,1,1.95,1.5,3.29,3.29,0,0,1,.52,1.57A1.16,1.16,0,0,1,248.36,162.9Z"/><path class="cls-12" d="M252.91,148.26a11.47,11.47,0,0,1,.05,2.09v5c0,1.88,0,3.59.08,5a13.89,13.89,0,0,1,0,2.08,8.76,8.76,0,0,1-.28-2.07c-.1-1.28-.18-3.06-.19-5s0-3.74.12-5A9,9,0,0,1,252.91,148.26Z"/><path class="cls-12" d="M246,165.29a2.71,2.71,0,0,1-.61-.23,2,2,0,0,0-1.61-.06,1.05,1.05,0,0,0-.54.87,6.11,6.11,0,0,0,.12,1.36,2.37,2.37,0,0,1-.23,1.64,2,2,0,0,1-1.59.85,2.28,2.28,0,0,1-1.65-.7,2.79,2.79,0,0,1-.79-1.44,9.24,9.24,0,0,1,0-2.69,5.58,5.58,0,0,1,.52-1.73,1.22,1.22,0,0,1,.42-.51s-.12.2-.28.58a6.57,6.57,0,0,0-.36,1.7,9.41,9.41,0,0,0,.07,2.57,2.23,2.23,0,0,0,2.05,1.8,1.61,1.61,0,0,0,1.26-.65,2,2,0,0,0,.19-1.37,5.44,5.44,0,0,1-.08-1.45,1.35,1.35,0,0,1,.74-1.09,2.05,2.05,0,0,1,1.82.17C245.85,165.12,246,165.26,246,165.29Z"/><path class="cls-12" d="M240.08,168.7s.08.22-.05.6a1.83,1.83,0,0,1-1.21,1.09,2.41,2.41,0,0,1-2.3-.69,4,4,0,0,1-1.05-2.74,4.8,4.8,0,0,1,.86-2.81,4.54,4.54,0,0,1,1.86-1.52,4.4,4.4,0,0,1,1.56-.39,1.4,1.4,0,0,1,.58,0,8.25,8.25,0,0,0-2,.6,4.65,4.65,0,0,0-1.66,1.48,4.57,4.57,0,0,0-.77,2.58,3.67,3.67,0,0,0,.92,2.48,2.12,2.12,0,0,0,1.95.67,1.73,1.73,0,0,0,1.13-.87C240,168.92,240,168.7,240.08,168.7Z"/><path class="cls-12" d="M247.37,175.63a1.67,1.67,0,0,1,1,0,4,4,0,0,1,2.2,1.3l-.35.1a12.35,12.35,0,0,1,.21-1.39,9,9,0,0,1,2.11-4.4,22.52,22.52,0,0,0-1.7,4.48c-.1.47-.18.93-.23,1.36l-.05.46-.3-.36a4.19,4.19,0,0,0-1.95-1.31C247.74,175.69,247.37,175.68,247.37,175.63Z"/><path class="cls-12" d="M247,157.8c.1,0-.3.8-1.21,1.21s-1.74.2-1.71.09.74-.11,1.54-.47S246.88,157.73,247,157.8Z"/><path class="cls-7" d="M367.33,186.71c4.34,0,14.78,12.32,16.59,31.06.84,8.57,5.14,43.71,7.21,60.6a16.85,16.85,0,0,1-6.85,15.69c-11.23,8.16-33.71,21-63.6,20.63L302.56,299.5l58.8-24.78,0-1.34,2.57-2.81-7.34-45S349.76,186.71,367.33,186.71Z"/><path class="cls-5" d="M352,107.56c.22,6.08,8.33,9.77,8.23,15.86,0,2.61-1.67,5-2,7.55-.43,3.49,1.52,6.78,2.24,10.22,1.48,7.08-2.64,14.55-8.75,18.43s-13.78,4.62-20.95,3.64"/><path class="cls-5" d="M303,106.06c.24,3.27-1.91,6.19-4.09,8.64s-4.59,5-5.06,8.25c-.83,5.74,4.79,11.08,3.63,16.76-.62,3-3.12,5.5-3.56,8.58s1.16,5.89,3.14,8.16,4.27,1.94,6,4.39a24.54,24.54,0,0,0,7.6,6.74c6.3,3.46,13.87-1.54,16.91-2.44"/><path class="cls-5" d="M353.25,111.06c.09-3-2.65-5.25-5.41-6.34s-5.82-1.49-8.28-3.15c-2.18-1.46-3.64-3.75-5.49-5.62a18.25,18.25,0,0,0-30.68,8.37c-1.06,4.22-.34,9.21,3,12,3.86,3.25,9.58,2.53,14.53,1.52s10.54-2,14.67.89c2.49,1.75,3.92,4.6,5.44,7.24s3.44,5.33,6.32,6.32,6.78-.72,6.9-3.76"/><path class="cls-8" d="M313.87,180.07c0-6.8-.08-13.42-.08-13.39s-10.8-1.81-13-15.91c-1.1-7-.72-18.51-.11-27.9.55-8.46,6.18-18.82,14.6-17.91l26.3,6.71a4.94,4.94,0,0,1,4.42,5h0l-2.4,63.83a14.86,14.86,0,0,1-15.15,14.3h0A14.86,14.86,0,0,1,313.87,180.07Z"/><path class="cls-5" d="M305.15,130.92a1.8,1.8,0,0,0,1.74,1.83,1.72,1.72,0,0,0,1.86-1.63A1.79,1.79,0,0,0,307,129.3,1.72,1.72,0,0,0,305.15,130.92Z"/><path class="cls-5" d="M303.15,128.85c.23.24,1.6-.77,3.54-.76s3.37,1,3.58.75-.12-.54-.74-1a5,5,0,0,0-2.87-.89,4.79,4.79,0,0,0-2.82.9C303.25,128.32,303,128.75,303.15,128.85Z"/><path class="cls-5" d="M324,131.41a1.82,1.82,0,0,0,1.74,1.83,1.73,1.73,0,0,0,1.87-1.63,1.81,1.81,0,0,0-1.74-1.83A1.75,1.75,0,0,0,324,131.41Z"/><path class="cls-5" d="M322.27,129.26c.23.23,1.6-.78,3.54-.77s3.37,1,3.58.75-.12-.53-.74-1a4.91,4.91,0,0,0-2.87-.9,4.73,4.73,0,0,0-2.81.91C322.37,128.73,322.16,129.15,322.27,129.26Z"/><path class="cls-5" d="M315.18,143.67a13.12,13.12,0,0,0-3.16-.58c-.49-.05-1-.15-1-.49a2.61,2.61,0,0,1,.34-1.47l1.48-3.78c2-5.38,3.53-9.81,3.32-9.89s-2.06,4.22-4.11,9.6l-1.42,3.8a2.88,2.88,0,0,0-.26,1.95,1.27,1.27,0,0,0,.81.73,3.53,3.53,0,0,0,.85.12A12.65,12.65,0,0,0,315.18,143.67Z"/><path class="cls-12" d="M313.79,166.68a35.76,35.76,0,0,0,18.88-5c-.15,0-5.19,9.8-18.7,8.32Z"/><path class="cls-7" d="M316,148.36a3.51,3.51,0,0,1,3.15-1.3,3.25,3.25,0,0,1,2.21,1.19,2,2,0,0,1,.14,2.32,2.33,2.33,0,0,1-2.55.64,7.27,7.27,0,0,1-2.48-1.49,2.13,2.13,0,0,1-.55-.57.65.65,0,0,1,0-.73"/><path class="cls-5" d="M320.9,145c-.31,0-.32,2.09-2.13,3.58s-4.06,1.26-4.08,1.56c0,.13.5.41,1.45.43a5.22,5.22,0,0,0,3.4-1.17,4.59,4.59,0,0,0,1.66-3C321.28,145.54,321.05,145,320.9,145Z"/><path class="cls-5" d="M321.4,125.85c.2.53,2.14.28,4.42.56s4.13.91,4.43.44c.14-.23-.18-.73-.93-1.24a7.33,7.33,0,0,0-3.28-1.16,7.41,7.41,0,0,0-3.46.4C321.75,125.18,321.32,125.6,321.4,125.85Z"/><path class="cls-5" d="M303.88,123.22c.34.45,1.68,0,3.29,0s3,.31,3.29-.16c.14-.22-.07-.66-.67-1.08a4.77,4.77,0,0,0-5.3.15C303.92,122.55,303.73,123,303.88,123.22Z"/><path class="cls-5" d="M347.53,158.82c-3.87.78-4.22-1.19-7.11-3.88a12.71,12.71,0,0,1-3.9-10.74c.44-3.46,2.31-7,1.1-10.26-1.58-4.33-7.65-5.66-9.27-10-.93-2.51-.09-5.45-1.15-7.91s-3.44-3.65-5.81-4.51-4.91-1.45-6.9-3-3.24-4.47-1.95-6.64a133.87,133.87,0,0,1,30.8,7.48c2.3.86,4.72,1.89,6.08,3.94s1.37,5,1.25,7.55q-.9,19-1.78,38"/><path class="cls-5" d="M356.4,130.07a10.82,10.82,0,0,1,20.47-3.75c2,4,1.28,8.83-.54,12.87-2.18,4.81-6.63,9.19-11.9,9-4.95-.23-8.94-4.58-10.37-9.33s-.85-9.84-.26-14.77"/><path class="cls-6" d="M359.16,149.37a2.39,2.39,0,0,0,.74-.81,7,7,0,0,0,1.05-2.82,13.34,13.34,0,0,0-.13-4.46c-.28-1.66-.84-3.39-1.25-5.24a13.25,13.25,0,0,1-.31-5.22c.29-1.57,1-2.9,1.35-4.14a5.28,5.28,0,0,0,.09-3c-.22-.7-.53-1-.55-1s.18.35.32,1a5.66,5.66,0,0,1-.27,2.82,34.46,34.46,0,0,0-1.5,4.17,13,13,0,0,0,.27,5.45c.41,1.89,1,3.62,1.29,5.22a14.13,14.13,0,0,1,.26,4.29A8.86,8.86,0,0,1,359.16,149.37Z"/><path class="cls-6" d="M359.37,132.45a7,7,0,0,0,2.16,2.11,12.38,12.38,0,0,0,13.93.25,6.81,6.81,0,0,0,2.23-2c-.07-.08-.88.75-2.46,1.66a13.18,13.18,0,0,1-6.76,1.78,13.35,13.35,0,0,1-6.7-2C360.22,133.23,359.44,132.37,359.37,132.45Z"/><path class="cls-6" d="M360.06,134.66a6.63,6.63,0,0,0,1.2,2.21A15.39,15.39,0,0,0,371.47,143a6.54,6.54,0,0,0,2.52,0,22.81,22.81,0,0,0-2.44-.45,17.93,17.93,0,0,1-5.48-2.14,18.16,18.16,0,0,1-4.47-3.84A19.2,19.2,0,0,0,360.06,134.66Z"/><path class="cls-6" d="M356.52,154.09s.06-.05.15-.17a5.25,5.25,0,0,0,.39-.57,7.47,7.47,0,0,0,.93-2.46,8.77,8.77,0,0,0-.23-4.16,8,8,0,0,0-3.28-4.42c-1.67-1.17-3.85-2-5.23-3.87a4.27,4.27,0,0,1-.77-3.31,18.55,18.55,0,0,1,1.23-3.66,10.52,10.52,0,0,0-.18-8.42,9.33,9.33,0,0,0-2.86-3.55,11.38,11.38,0,0,0-4.33-1.79c-1.52-.35-3-.55-4.46-1a8.69,8.69,0,0,1-3.74-2,6.25,6.25,0,0,1-1.62-3.7,31.26,31.26,0,0,0-.66-4.1,14.13,14.13,0,0,0-3.81-6.67,11.19,11.19,0,0,0-6-3,8.85,8.85,0,0,0-5.45.83,8.49,8.49,0,0,0-3.15,2.73,7.33,7.33,0,0,0-1.11,2.39,3.83,3.83,0,0,0-.13.91,8.87,8.87,0,0,1,1.43-3.16A8.49,8.49,0,0,1,322,97.69a10.79,10.79,0,0,1,5.7,2.9,13.7,13.7,0,0,1,3.61,6.45,32.54,32.54,0,0,1,.63,4,6.76,6.76,0,0,0,1.77,4,9.2,9.2,0,0,0,4,2.21c1.48.45,3,.65,4.51,1A10.62,10.62,0,0,1,346.3,120a8.61,8.61,0,0,1,2.68,3.31,10,10,0,0,1,.2,8,18.79,18.79,0,0,0-1.24,3.78,4.78,4.78,0,0,0,.89,3.69c1.54,2,3.78,2.81,5.4,3.94a7.61,7.61,0,0,1,3.2,4.15,8.59,8.59,0,0,1,.32,4A9.74,9.74,0,0,1,356.52,154.09Z"/><path class="cls-6" d="M355.57,114.74a1.69,1.69,0,0,0,.18-.65,3.07,3.07,0,0,0-.47-1.87,4.76,4.76,0,0,0-2.36-2,7.41,7.41,0,0,0-4.05-.14c-1.47.28-3,.87-4.68,1.2a6.29,6.29,0,0,1-5.1-.8c-1.5-1.14-2.25-3.12-3-5.08a20.93,20.93,0,0,0-3.26-5.8,19.47,19.47,0,0,0-10.66-6.9,11.16,11.16,0,0,0-5.64.15,8.75,8.75,0,0,0-4.12,2.66,6.54,6.54,0,0,0-1.56,3.74,6.41,6.41,0,0,0,.47,3,4.73,4.73,0,0,0,1.06,1.61,1.9,1.9,0,0,0,.52.42,6.78,6.78,0,0,1-1.36-2.12,6.46,6.46,0,0,1-.35-2.9,6.24,6.24,0,0,1,1.55-3.48,8.35,8.35,0,0,1,3.94-2.46,10.76,10.76,0,0,1,5.36-.08A19.16,19.16,0,0,1,332.33,100a20.87,20.87,0,0,1,3.18,5.65c.78,1.94,1.55,4,3.24,5.3a5.32,5.32,0,0,0,2.78,1,9.65,9.65,0,0,0,2.76-.2c1.74-.36,3.24-1,4.67-1.27a7.19,7.19,0,0,1,3.84,0,4.65,4.65,0,0,1,2.27,1.75,3,3,0,0,1,.55,1.74C355.62,114.51,355.54,114.73,355.57,114.74Z"/><path class="cls-7" d="M368.57,186.91l-25-6.37h-29.8s-15.45.89-24.05,8.48a19.1,19.1,0,0,0-4.69,7.67L271.81,227,265,189l-23.78,3.38,3.84,65.41A32.12,32.12,0,0,0,270.39,286l13.53-15.21c1.56,12.41,2.95,23,3.09,22.91.33-.33,74.07-4.81,74.07-4.81l-7.46-25.23Z"/><path class="cls-7" d="M274.07,102.26a17,17,0,1,0-24.47,15.18c0,2,0,4.3,0,4.3l14.95.15s.11-2.41.17-4.57A17,17,0,0,0,274.07,102.26Z"/><path class="cls-5" d="M259.09,121.77s0-.08,0-.22l.08-.61c.07-.54.18-1.33.34-2.36s.37-2.26.71-3.69a25.38,25.38,0,0,1,1.6-4.73,16.27,16.27,0,0,1,1.43-2.54,3.11,3.11,0,0,1,1.18-1,1.71,1.71,0,0,1,1.61.07,1.15,1.15,0,0,1,.54.68,1.25,1.25,0,0,1-.08.87,2.41,2.41,0,0,1-1.33,1.12,4.69,4.69,0,0,1-5.92-3.16,3.52,3.52,0,0,1-.08-2,1.52,1.52,0,0,1,1.56-1.17,1.08,1.08,0,0,1,.86.61,1.53,1.53,0,0,1,.13,1,3.33,3.33,0,0,1-1.22,1.68,5,5,0,0,1-4,1.11,4.44,4.44,0,0,1-3.27-2.49,2.55,2.55,0,0,1-.09-2.06,1.31,1.31,0,0,1,.76-.75,1.26,1.26,0,0,1,1,.11,1.68,1.68,0,0,1,.72.75,2.83,2.83,0,0,1,.25,1,5.05,5.05,0,0,1-.28,1.94,5.12,5.12,0,0,1-2.44,2.84,5.24,5.24,0,0,1-3.53.45,2.79,2.79,0,0,1-1.53-.83,1.32,1.32,0,0,1-.07-1.65,1,1,0,0,1,.77-.36,1.61,1.61,0,0,1,.81.16,2.5,2.5,0,0,1,1,1.18c.42.93.75,1.83,1.09,2.7,1.33,3.45,2.27,6.29,2.89,8.26.32,1,.55,1.75.7,2.27.08.26.13.45.18.59s.05.21.05.21,0-.07-.07-.2-.11-.34-.2-.59c-.17-.52-.41-1.28-.73-2.26-.65-2-1.61-4.79-3-8.23-.34-.86-.68-1.77-1.1-2.68a2.29,2.29,0,0,0-1-1.1,1,1,0,0,0-1.29,1.58,2.54,2.54,0,0,0,1.43.77,5,5,0,0,0,3.4-.44,4.9,4.9,0,0,0,2.34-2.73,4.72,4.72,0,0,0,.26-1.87,1.84,1.84,0,0,0-.85-1.57,1,1,0,0,0-1.52.54,2.42,2.42,0,0,0,.09,1.9,4.26,4.26,0,0,0,3.12,2.37,4.91,4.91,0,0,0,3.82-1.07,3.09,3.09,0,0,0,1.14-1.57,1.31,1.31,0,0,0-.1-.91.91.91,0,0,0-.7-.5,1.21,1.21,0,0,0-.85.27,1.43,1.43,0,0,0-.5.75,3.46,3.46,0,0,0,.08,1.86,4.5,4.5,0,0,0,5.66,3,2.21,2.21,0,0,0,1.23-1,1,1,0,0,0-.38-1.33,1.6,1.6,0,0,0-1.46-.06,2.91,2.91,0,0,0-1.11,1,15.84,15.84,0,0,0-1.43,2.5,25.16,25.16,0,0,0-1.61,4.69c-.35,1.43-.58,2.67-.75,3.69s-.29,1.8-.38,2.35c0,.26-.07.46-.1.61A1.76,1.76,0,0,1,259.09,121.77Z"/><path class="cls-5" d="M263.32,124.65l-12.83-.14a1,1,0,0,1-1-1h0a1,1,0,0,1,1-1l12.83.13a1,1,0,0,1,1,1h0A1,1,0,0,1,263.32,124.65Z"/><path class="cls-5" d="M263.31,125.49l-12.83-.14a1,1,0,0,0,0,1.93h1.41l1.83,3.58a1.23,1.23,0,0,0,1.09.67l4.58.05a1.23,1.23,0,0,0,1.11-.66l1.85-3.53h1a1,1,0,0,0,0-1.92Z"/><g class="cls-13"><path class="cls-2" d="M246.19,91.11a12.45,12.45,0,0,1,3.43-2.24,9.43,9.43,0,0,1,2.64-.73c.65-.06,1,0,1,.14.07.31-1.22.76-3,1.9a14,14,0,0,0-6.53,13.7c.21,2.09.68,3.37.4,3.51-.13.07-.41-.18-.77-.72a9,9,0,0,1-1.09-2.51,12.66,12.66,0,0,1-.43-4.08,13.39,13.39,0,0,1,1.25-4.91"/></g><g class="cls-13"><path class="cls-2" d="M257.39,89.06c-1.08,0-2-.33-2.13-.9,0-.28.16-.59.55-.82a3.4,3.4,0,0,1,3.22,0c.39.25.58.55.53.84"/></g><path class="cls-6" d="M260.24,131.23s-.34-.12-.88-.28A7.1,7.1,0,0,0,255,131c-.53.18-.85.34-.86.31a2.45,2.45,0,0,1,.81-.45,6.36,6.36,0,0,1,2.21-.45,6.47,6.47,0,0,1,2.23.37A2.61,2.61,0,0,1,260.24,131.23Z"/><path class="cls-6" d="M262.36,127.45c0,.06-2.32.08-5.18,0s-5.18-.1-5.18-.16,2.32-.08,5.18,0S262.36,127.39,262.36,127.45Z"/><path class="cls-6" d="M261.54,129a7.79,7.79,0,0,1-1.26.12c-.79,0-1.87.07-3.07.07s-2.27,0-3.06-.05a7.27,7.27,0,0,1-1.26-.11,7.7,7.7,0,0,1,1.27,0h3l3.06,0A7.28,7.28,0,0,1,261.54,129Z"/><path class="cls-5" d="M286.7,244.75a4.24,4.24,0,0,1-.75-.92,10.22,10.22,0,0,1-1.33-3,18.73,18.73,0,0,1,.63-10.6c1.34-4,3.09-7.31,4.07-9.84.51-1.26.87-2.29,1.11-3a6.61,6.61,0,0,1,.39-1.12,3.89,3.89,0,0,1-.2,1.17,26.51,26.51,0,0,1-1,3.09c-.89,2.59-2.6,6-3.91,9.87a19.27,19.27,0,0,0-.77,10.35A15.23,15.23,0,0,0,286.7,244.75Z"/><path class="cls-5" d="M355.77,218.93a3.15,3.15,0,0,1,.14.51l.3,1.5c.25,1.37.6,3.24,1,5.51.83,4.66,1.93,11.1,3.09,18.22s2.15,13.59,2.79,18.28c.33,2.35.56,4.25.7,5.57.05.61.1,1.11.13,1.51a2.75,2.75,0,0,1,0,.54,2,2,0,0,1-.12-.52c-.06-.41-.14-.9-.23-1.51-.22-1.38-.51-3.25-.86-5.53-.76-4.74-1.8-11.16-2.94-18.25s-2.18-13.51-2.95-18.25c-.35-2.28-.64-4.15-.85-5.54-.08-.61-.15-1.1-.21-1.51A1.78,1.78,0,0,1,355.77,218.93Z"/><path class="cls-5" d="M271.16,245.73a16.33,16.33,0,0,1,.17-2.79c.14-1.71.31-4.08.38-6.7s0-5,0-6.71a18.36,18.36,0,0,1,0-2.79,12.27,12.27,0,0,1,.4,2.77,63.18,63.18,0,0,1-.36,13.47A13.88,13.88,0,0,1,271.16,245.73Z"/><path class="cls-5" d="M372.77,277.2c-.08,0-.23-.65-.7-1.63a9,9,0,0,0-2.65-3.22,8.82,8.82,0,0,0-3.85-1.59c-1.08-.17-1.76-.11-1.77-.2a3.56,3.56,0,0,1,1.81-.17,8.15,8.15,0,0,1,4.12,1.54,8,8,0,0,1,2.67,3.49A3.61,3.61,0,0,1,372.77,277.2Z"/><path class="cls-5" d="M367.28,280.16a22.38,22.38,0,0,0-2.6-3.26,23.29,23.29,0,0,0-3.45-2.33,7.93,7.93,0,0,1,6,5.59Z"/><path class="cls-5" d="M348.87,280.17c-.06-.14,2.78-1.3,6.24-2.83s6.22-2.84,6.29-2.71a33.4,33.4,0,0,1-6.08,3.19A33,33,0,0,1,348.87,280.17Z"/><path class="cls-1" d="M251.62,238S266,306.4,266,305.51s72.47,3.11,85.44,3.68l2.7-.66,20.45-18.83L351,287.8l-8.42-48.12Z"/><path class="cls-6" d="M342.61,239.68c.15,0,2.83,15.37,6,34.38s5.63,34.45,5.49,34.47-2.83-15.37-6-34.38S342.47,239.7,342.61,239.68Z"/><path class="cls-6" d="M342.88,239.71a2.81,2.81,0,0,1-.52.52,13.47,13.47,0,0,0-1.5,1.42c-.25.33-.59.79-.41,1.27s.22,1.13.34,1.76c.22,1.28.48,2.72.76,4.3,1.09,6.43,2.58,15.21,4.23,24.91s3,18.51,4.09,24.94c.49,3.15.89,5.73,1.18,7.57.12.85.22,1.54.29,2.06a3.89,3.89,0,0,1,.07.73,3.29,3.29,0,0,1-.17-.71l-.39-2.05c-.33-1.83-.79-4.4-1.35-7.54-1.09-6.42-2.58-15.21-4.23-24.91s-3-18.5-4.09-24.94c-.25-1.59-.48-3-.68-4.31-.1-.63-.17-1.23-.29-1.75a1.62,1.62,0,0,1,.5-1.46,10.28,10.28,0,0,1,1.58-1.37A7.16,7.16,0,0,1,342.88,239.71Z"/><path class="cls-6" d="M340.23,242.21a5.11,5.11,0,0,1-.89,0h-2.56l-9.42-.13-31.05-.55L265.25,241l-9.41-.14-2.56-.06a6,6,0,0,1-.89-.05,4.65,4.65,0,0,1,.89-.05l2.56,0c2.22,0,5.44,0,9.41,0,7.95,0,18.94.15,31.07.37s23.1.48,31.05.7l9.41.3,2.56.11A5.72,5.72,0,0,1,340.23,242.21Z"/><path class="cls-6" d="M351,289.75a6.83,6.83,0,0,1,1.39,0l3.81.16c3.21.15,7.68.39,12.66.69l.65,0L369,291l-.92.78c-4,3.41-7.68,6.48-10.34,8.68l-3.17,2.58a8.08,8.08,0,0,1-1.21.9,7.62,7.62,0,0,1,1.07-1.05l3.07-2.71c2.6-2.27,6.22-5.38,10.24-8.8l.92-.78.15.46c-5-.31-9.44-.61-12.66-.86l-3.79-.31A9,9,0,0,1,351,289.75Z"/><path class="cls-8" d="M287.92,307.61h0L287,296.47a3.46,3.46,0,0,1,4,3.58v-6.89s4.25-.93,5.17,4.64a39.26,39.26,0,0,0,2.26,8.57l2.25,1.24-2.12-12.86s4.51.39,5.3,4.64a41.73,41.73,0,0,0,2,7.22l7.12,2s-4.09-3.64-3.69-4.84.13-1.12.93-1.29a7.55,7.55,0,0,1,3.8,1c1.29.69,8.79,5.13,8.79,5.13v5.5s-17.46,1.26-21.4.53l-7.64-1.77A8.09,8.09,0,0,1,287.92,307.61Z"/><path class="cls-9" d="M304.61,271a4.85,4.85,0,1,1-5.64-4.52A5.12,5.12,0,0,1,304.61,271Z"/><g class="cls-14"><path d="M363.88,270.28a13,13,0,0,1,9.1.27,9.32,9.32,0,0,1,5.52,7,4.34,4.34,0,0,1-.15,2.12,2.37,2.37,0,0,1-1.45,1.48,2.77,2.77,0,0,1-2.92-1.39,17.32,17.32,0,0,1-1.29-3.22,10.17,10.17,0,0,0-9.05-6.28l.47.13"/></g><path class="cls-7" d="M311.28,184.3c.6-1.88.06-3.9-.27-5.84s-.37-4.17.95-5.63,3.49-1.64,5.45-1.72l24.21-1.06c1.65-.07,3.56,0,4.6,1.26a3.58,3.58,0,0,1,.85,3c-1.25,4.61-.86,8.49.95,11.73"/><path class="cls-5" d="M344.08,182a6.84,6.84,0,0,1-1.06.89,27.54,27.54,0,0,1-3.19,2A31.3,31.3,0,0,1,328,188.52a27.79,27.79,0,0,1-6.86-.13,16.12,16.12,0,0,1-5.34-1.73,9.76,9.76,0,0,1-2.95-2.38,6.48,6.48,0,0,1-.59-.84c-.12-.2-.18-.31-.16-.32a11.78,11.78,0,0,0,3.87,3.21,16.53,16.53,0,0,0,5.24,1.58,28.94,28.94,0,0,0,6.74.09,33,33,0,0,0,11.74-3.43C342.48,183.15,344,181.91,344.08,182Z"/><path class="cls-5" d="M327.55,188.6a15.19,15.19,0,0,1-.63-2.67c-.32-1.66-.73-4-1.15-6.49-.2-1.27-.39-2.47-.57-3.59a6.34,6.34,0,0,1,.1-3,2.9,2.9,0,0,1,1.27-1.62c.44-.24.72-.23.72-.2s-.25.1-.61.37a2.91,2.91,0,0,0-1,1.56,6.47,6.47,0,0,0,0,2.84c.19,1.12.4,2.32.61,3.58.43,2.54.78,4.85,1,6.52A14,14,0,0,1,327.55,188.6Z"/><path class="cls-5" d="M340.14,184.77a9.33,9.33,0,0,1-.46-2.2c-.21-1.37-.48-3.26-.73-5.35s-.42-4-.62-5.34a2.09,2.09,0,0,0-.75-1.29c-.3-.21-.52-.22-.52-.27s.24-.09.62.1a2.12,2.12,0,0,1,1,1.37c.3,1.4.5,3.26.78,5.36s.45,4,.58,5.37A9.92,9.92,0,0,1,340.14,184.77Z"/><path class="cls-5" d="M317.1,171.13a5.35,5.35,0,0,0-1.62,1.36,5.09,5.09,0,0,0-.89,2.09,10.63,10.63,0,0,0-.09,2.85c.19,2,.36,3.94.45,5.29a9.5,9.5,0,0,1,0,2.21,8.35,8.35,0,0,1-.41-2.17c-.18-1.35-.41-3.21-.6-5.29a10.13,10.13,0,0,1,.14-3,5.18,5.18,0,0,1,1.07-2.22C316.13,171.15,317.12,171.07,317.1,171.13Z"/></g><g id="Character_1" data-name="Character 1"><path class="cls-6" d="M218.42,318.52c0,5.14,3,103.84,3,103.84l-42-.21L172,378.28l-1.93,43.87H129.78l4.38-108.34Z"/><path class="cls-5" d="M94.61,277.65l-21.47-32,15.93-12.93,26.92,25s11.59-65,23-68.92l-.89,100.81h0A34.5,34.5,0,0,1,94.61,277.65Z"/><polygon class="cls-7" points="50.66 126.96 55.23 189.26 130 332.6 173.23 307.56 99.54 167.47 50.66 126.96"/><g class="cls-15"><path class="cls-2" d="M100.28,167.74A4.39,4.39,0,0,1,93.89,169,11.13,11.13,0,0,1,76.11,180.3a13,13,0,0,1-20.91,8.49L50.66,127Z"/></g><path class="cls-7" d="M52.5,152s10.13,6.36,18.19-8.45l-20-16.6Z"/><path class="cls-2" d="M146.48,320.89c-.13.06-16-31.31-35.5-70.07s-35.17-70.24-35-70.31,16,31.31,35.5,70.08S146.61,320.82,146.48,320.89Z"/><path class="cls-2" d="M164.46,310.13c-.13.07-16-31.31-35.51-70.06s-35.17-70.25-35-70.31,16,31.3,35.51,70.07S164.58,310.07,164.46,310.13Z"/><path class="cls-16" d="M76.54,210.42l-9.7,3.87-2.08,7.82,3.34,13,7.84,8.31,5.28-4.37.33-8,.65-4.46s4.78-1.5,4.9-2.23-.6-3.19-1.33-3.31S80,222.85,80,222.85s5.94-4.7,5.77-5.45-.8-2.69-2-2.9S73,218.8,73,218.8l-1.55,3.54-1.36-5.67S78.64,214.29,76.54,210.42Z"/><path class="cls-17" d="M77.76,228.74c-.06,0-.24-.34-.33-1a5.28,5.28,0,0,1,1.66-4.49c.48-.42.85-.57.88-.52a10.7,10.7,0,0,0-1.78,2.74A11,11,0,0,0,77.76,228.74Z"/><path class="cls-17" d="M73.15,227.05a21.1,21.1,0,0,0,.38-2.55,11.15,11.15,0,0,1,.49-2.81,4.23,4.23,0,0,1,.89-1.5,4.42,4.42,0,0,1,1.59-1c2.32-.84,4.41-1.52,5.94-2a12.58,12.58,0,0,1,2.5-.69,13.93,13.93,0,0,1-2.39,1c-1.49.58-3.59,1.32-5.86,2.15a4.05,4.05,0,0,0-1.42.87,3.89,3.89,0,0,0-.82,1.32,12.46,12.46,0,0,0-.57,2.7A5.2,5.2,0,0,1,73.15,227.05Z"/><path class="cls-17" d="M70.92,225.29a3.87,3.87,0,0,1,.06-1.91c.18-1,.42-1.85.56-1.83s.11.88-.06,1.91S71.06,225.32,70.92,225.29Z"/><path class="cls-7" d="M202.07,170.13l-8.51-2.89-31.78,7.3L159,176.87,142.14,332.6c7.23,7.45,30,8.93,42.93,6.72Z"/><path class="cls-5" d="M202.66,170.43l-4.09-2s-9,39.64-9,65.82-5.66,121.11-5.66,121.11l42.87-1.1V249.35Z"/><path class="cls-5" d="M142.14,356.91l-16.24-4.76,5.67-76.74-1.08-55.64,8.51-31,20.16-12.45S143.25,347.66,142.14,356.91Z"/><path class="cls-16" d="M176,189.29h0a15.64,15.64,0,0,1-14.26-15.64l.05-13.93s-12.86-2-13-14.86,2.07-42.4,2.07-42.4h0a44.69,44.69,0,0,1,44.92,5.65l1.91,1.46L193,174.82A15.64,15.64,0,0,1,176,189.29Z"/><path class="cls-17" d="M161.79,159.54a29.91,29.91,0,0,0,16.77-4.77s-4,9.26-16.8,8.1Z"/><path class="cls-16" d="M196.1,122.9c.22-.1,8.84-2.62,8.56,6.18s-9,6.7-9.06,6.44S196.1,122.9,196.1,122.9Z"/><path class="cls-17" d="M198.39,132.28s.15.11.41.24a1.58,1.58,0,0,0,1.14.06c.94-.31,1.77-1.76,1.86-3.35a5,5,0,0,0-.36-2.21,1.76,1.76,0,0,0-1.11-1.21.79.79,0,0,0-.92.39c-.12.24-.07.42-.12.44s-.18-.16-.1-.52a1,1,0,0,1,.36-.54,1.22,1.22,0,0,1,.86-.2A2.17,2.17,0,0,1,202,126.8a5.22,5.22,0,0,1,.46,2.47c-.12,1.77-1.08,3.4-2.36,3.72a1.63,1.63,0,0,1-1.39-.27C198.4,132.49,198.36,132.29,198.39,132.28Z"/><path class="cls-5" d="M155.08,122.25a1.83,1.83,0,0,0,1.77,1.85,1.74,1.74,0,0,0,1.89-1.65,1.84,1.84,0,0,0-1.77-1.86A1.76,1.76,0,0,0,155.08,122.25Z"/><path class="cls-5" d="M153.29,120.56c.23.23,1.62-.8,3.6-.79s3.43,1,3.64.75-.13-.54-.76-1a5,5,0,0,0-2.91-.9,4.8,4.8,0,0,0-2.86.93C153.39,120,153.18,120.45,153.29,120.56Z"/><path class="cls-5" d="M174.51,123.08a1.84,1.84,0,0,0,1.77,1.86,1.76,1.76,0,0,0,1.89-1.66,1.83,1.83,0,0,0-1.77-1.85A1.74,1.74,0,0,0,174.51,123.08Z"/><path class="cls-5" d="M172.72,120.92c.23.24,1.63-.79,3.6-.78s3.43,1,3.64.75-.12-.54-.76-1a5,5,0,0,0-2.91-.9,4.8,4.8,0,0,0-2.86.93C172.82,120.38,172.61,120.82,172.72,120.92Z"/><path class="cls-5" d="M165.55,135.58a13.52,13.52,0,0,0-3.21-.58c-.5-.05-1-.15-1.07-.49a2.53,2.53,0,0,1,.34-1.5l1.49-3.84c2.08-5.47,3.58-10,3.35-10.06s-2.08,4.29-4.15,9.76c-.5,1.35-1,2.64-1.43,3.87a2.9,2.9,0,0,0-.26,2,1.29,1.29,0,0,0,.83.74,3.61,3.61,0,0,0,.86.12A12.15,12.15,0,0,0,165.55,135.58Z"/><path class="cls-5" d="M172.21,113.18c.2.54,2.17.28,4.49.56s4.2.91,4.5.43c.14-.23-.18-.74-.94-1.26a7.6,7.6,0,0,0-3.34-1.17,7.44,7.44,0,0,0-3.51.42C172.56,112.5,172.13,112.92,172.21,113.18Z"/><path class="cls-5" d="M154,114.83c.35.45,1.71,0,3.35,0s3,.3,3.34-.17c.14-.23-.08-.68-.68-1.11a4.7,4.7,0,0,0-2.72-.73,4.65,4.65,0,0,0-2.67.9C154.06,114.15,153.87,114.62,154,114.83Z"/><path class="cls-5" d="M144.59,94.34a4.76,4.76,0,0,1,1.76-4.24,3.36,3.36,0,0,1,4.36.32,3.93,3.93,0,0,1,3.38-4.76c2.1-.14,3.89,1.45,5.91,2a9.56,9.56,0,0,0,6-.7c1.9-.76,3.68-1.82,5.61-2.53a16.47,16.47,0,0,1,21,9.66c2.81-.88,6,.55,7.74,2.93a11.94,11.94,0,0,1,1.83,8.44,26.28,26.28,0,0,1-1.47,5.77c0,.17,0,.33,0,.5-.14,7.07-.93,15.38-3.95,15.42-5.26.08-4-9.82-4-9.82-6.45-2.5-4-12.17-5.66-13.64s-5-4.87-18.51,2c-5.24,2.69-12.22,2.6-16,1.74l-.34-.07-.07,0-.12,0a12.4,12.4,0,0,1-3.46-1.47,6.83,6.83,0,0,1-2.86-3.18,3.74,3.74,0,0,1,.74-4A8.27,8.27,0,0,1,144.59,94.34Z"/><path class="cls-17" d="M163.87,141.66a8.69,8.69,0,0,0,1.15,2.25,3,3,0,0,0,2.12,1.23,2.71,2.71,0,0,0,2.27-1.23,4.3,4.3,0,0,0,.63-2.58c0-.81-.41-1.78-1.22-1.88a2,2,0,0,0-1,.22l-4.24,1.72"/><path class="cls-5" d="M165.57,145.15a5.93,5.93,0,0,0,2.26-.28,3.22,3.22,0,0,0,1.71-1.55,3.41,3.41,0,0,0,.06-2.77,3.58,3.58,0,0,0-.37-.64c-.17-.18-.14-.17-.32-.14s-.46.18-.68.27l-.7.28c-.91.37-1.73.69-2.42,1a7.43,7.43,0,0,1-2.31.69,7.64,7.64,0,0,1,2.09-1.18c.67-.33,1.47-.7,2.37-1.1l.68-.31c.25-.1.44-.21.78-.32a1.05,1.05,0,0,1,.63,0,1.1,1.1,0,0,1,.46.37,3.61,3.61,0,0,1,.48.8,4,4,0,0,1-.13,3.4,3.62,3.62,0,0,1-2.15,1.74,3.45,3.45,0,0,1-1.84.07C165.75,145.34,165.55,145.2,165.57,145.15Z"/><path class="cls-6" d="M187.58,102.5a7.17,7.17,0,0,0,0-1.55,6.05,6.05,0,0,0-2-3.61,8.17,8.17,0,0,0-5.79-1.92,25,25,0,0,0-7.53,1.69c-1.31.43-2.6.84-3.89,1.13a20.93,20.93,0,0,1-3.76.45,20.31,20.31,0,0,1-6.34-.83,19.42,19.42,0,0,1-4-1.68c-.45-.25-.78-.47-1-.62a2.65,2.65,0,0,1-.33-.24s.49.27,1.4.73a21.16,21.16,0,0,0,4,1.55,20.89,20.89,0,0,0,6.25.74,19.32,19.32,0,0,0,3.69-.47c1.26-.28,2.54-.69,3.86-1.12a25.15,25.15,0,0,1,7.63-1.68,8.41,8.41,0,0,1,6,2.07,6.13,6.13,0,0,1,2,3.79A3.51,3.51,0,0,1,187.58,102.5Z"/><path class="cls-6" d="M197.59,124.24s-.07-.09-.17-.27a8,8,0,0,1-.4-.82,15.62,15.62,0,0,1-1-3.2,17.52,17.52,0,0,1-.33-5,44.59,44.59,0,0,1,1.15-6,11.7,11.7,0,0,0,0-5.91,6.19,6.19,0,0,0-1.23-2.25,4.57,4.57,0,0,0-1.85-1.21,4.26,4.26,0,0,0-3.18.08,5.67,5.67,0,0,0-1,.7,2.34,2.34,0,0,1,.92-.83,4.27,4.27,0,0,1,3.32-.2,4.79,4.79,0,0,1,2,1.25,6.16,6.16,0,0,1,1.33,2.35,11.84,11.84,0,0,1,0,6.09A46.51,46.51,0,0,0,196,115a18.47,18.47,0,0,0,.24,4.89,20.88,20.88,0,0,0,.9,3.2C197.43,123.83,197.62,124.23,197.59,124.24Z"/><path class="cls-6" d="M188.82,101.47a3.49,3.49,0,0,1,0-.52c0-.38,0-.87.06-1.48a17.42,17.42,0,0,0-.59-5.34,9.62,9.62,0,0,0-1.72-3.24,6.69,6.69,0,0,0-3.45-2.28,8.72,8.72,0,0,0-4.6.19,21,21,0,0,0-4.61,2.08,37.21,37.21,0,0,1-4.56,2.35,14,14,0,0,1-4.71,1,15.18,15.18,0,0,1-4.3-.53,16.81,16.81,0,0,1-3.5-1.44,14.41,14.41,0,0,1-4.14-3.53,9.06,9.06,0,0,1-.84-1.23,3.17,3.17,0,0,1-.25-.45,2.3,2.3,0,0,1,.32.41,11.37,11.37,0,0,0,.89,1.17A14.66,14.66,0,0,0,157,92a16.22,16.22,0,0,0,3.45,1.37,14.65,14.65,0,0,0,4.21.49,13.72,13.72,0,0,0,4.58-.94,38.19,38.19,0,0,0,4.52-2.34,21.46,21.46,0,0,1,4.68-2.11,9,9,0,0,1,4.8-.17,6.91,6.91,0,0,1,3.6,2.42,9.42,9.42,0,0,1,1.73,3.37,16.5,16.5,0,0,1,.49,5.42c0,.64-.09,1.14-.13,1.48A3.18,3.18,0,0,1,188.82,101.47Z"/><path class="cls-5" d="M202.66,170.43s30.67,9.81,32.71,15.13c1.54,4,17.65,52.36,21.13,83.89a23.16,23.16,0,0,1-21,25.5c-20.76,1.9-50.92,4.38-50.92,2.67V271.48l39.06-5.77L209.2,223.18Z"/><path class="cls-16" d="M163.29,292.34c4,1,21.32,1,21.32,1V272.84s-7.53-3.22-9.61-5.09-8-12.92-8-12.92a5.92,5.92,0,0,0-2.72,6.32c1,4.51,2.84,5.06,3,6.86,0,0,.15.46.16.48.4,2.5-2,4.71-2,4.71a9,9,0,0,0-2.63-1.35c-3.65-.43-8,2.19-8,3.64,0,0-.13,3.94,0,4.52s2,1.36,2,1.36-.58,2.63,0,3.79a6.08,6.08,0,0,0,2.53,2S161,291.75,163.29,292.34Z"/><path class="cls-17" d="M167.49,289.05a9.68,9.68,0,0,1-4.17-.23,9.48,9.48,0,0,1-3.89-1.54c.06-.14,1.78.55,4,1S167.49,288.89,167.49,289.05Z"/><path class="cls-17" d="M166.47,282.89a9.91,9.91,0,0,1-4.72.25,10,10,0,0,1-4.5-1.48c.06-.15,2,.64,4.57,1S166.46,282.74,166.47,282.89Z"/><path class="cls-17" d="M165.88,265.25a8.13,8.13,0,0,1,1.39,2.55,9,9,0,0,1,.44,1.41,3.4,3.4,0,0,1,0,1.76,5.2,5.2,0,0,1-2.48,3,6.23,6.23,0,0,1-1.91.75,11.46,11.46,0,0,1-1.87.2c-1.19,0-2.24,0-3.13,0-1.77,0-2.83.27-2.85.2a6.91,6.91,0,0,1,2.84-.57c.89-.07,2-.08,3.12-.15a12.45,12.45,0,0,0,1.79-.21,6.08,6.08,0,0,0,1.75-.71,4.81,4.81,0,0,0,2.28-2.71,3,3,0,0,0,.06-1.54,9.86,9.86,0,0,0-.37-1.38C166.36,266.25,165.81,265.29,165.88,265.25Z"/><path class="cls-6" d="M224.16,265.65a11.21,11.21,0,0,1-1.54.32l-4.22.73c-3.57.59-8.51,1.37-14,2.19s-10.4,1.54-14,2a37.18,37.18,0,0,1-5.83.58l1.55-.27,4.22-.67,14-2.16c5.46-.83,10.41-1.55,14-2.05l4.25-.56A7.63,7.63,0,0,1,224.16,265.65Z"/><path class="cls-6" d="M240.74,261.77a18.09,18.09,0,0,1-3.08,0c-1.9-.09-4.52-.24-7.41-.43a14.28,14.28,0,0,0-4,0,4,4,0,0,0-2.6,1.65,2.83,2.83,0,0,0-.37,2.05c.12.5.31.74.27.76s-.27-.18-.47-.7a2.89,2.89,0,0,1,.25-2.29,4.31,4.31,0,0,1,2.81-1.94,13.9,13.9,0,0,1,4.14-.09c2.89.19,5.51.4,7.4.58A17.51,17.51,0,0,1,240.74,261.77Z"/><path class="cls-6" d="M234.31,268.94a31.47,31.47,0,0,1-5.56-1.38,30.83,30.83,0,0,1-5.42-1.87,31.93,31.93,0,0,1,5.56,1.37A31.31,31.31,0,0,1,234.31,268.94Z"/><path class="cls-6" d="M210.08,217.78c.14-.05,3.29,9.9,7,22.2s6.67,22.32,6.54,22.36-3.29-9.9-7-22.21S209.94,217.82,210.08,217.78Z"/><path class="cls-6" d="M233,186.3c0,.1-1.79.38-4.53,1.43a26.92,26.92,0,0,0-15.6,15.72c-1,2.74-1.3,4.56-1.4,4.54a5.69,5.69,0,0,1,.15-1.28,22.72,22.72,0,0,1,.9-3.39,25.84,25.84,0,0,1,15.83-15.93,23.13,23.13,0,0,1,3.38-.93A5.43,5.43,0,0,1,233,186.3Z"/><path class="cls-6" d="M130.9,207.64a3.15,3.15,0,0,1,.06.69c0,.51,0,1.17.07,2,0,1.79.08,4.28.15,7.33.07,6.24.18,14.77.29,24.19s.1,18,.14,24.2c0,3.05,0,5.54,0,7.33l0,2a4.75,4.75,0,0,1,0,.7,3.2,3.2,0,0,1-.06-.7c0-.51,0-1.17-.07-2,0-1.79-.09-4.28-.15-7.33-.07-6.25-.18-14.77-.29-24.2s-.11-17.95-.14-24.19c0-3,0-5.54,0-7.33,0-.83,0-1.49,0-2A3.38,3.38,0,0,1,130.9,207.64Z"/><path class="cls-5" d="M179.26,420.84a3.7,3.7,0,0,1-.21-.75c-.13-.54-.29-1.26-.5-2.17-.42-1.88-1-4.62-1.67-8-1.37-6.78-3.11-16.17-4.78-26.59s-2.93-19.89-3.74-26.76c-.41-3.43-.72-6.21-.91-8.14l-.2-2.22a4.45,4.45,0,0,1,0-.77,3.68,3.68,0,0,1,.14.76c.08.56.18,1.29.31,2.21.25,2,.62,4.73,1.06,8.11.91,6.85,2.23,16.31,3.89,26.73s3.36,19.8,4.63,26.6c.63,3.35,1.14,6.09,1.51,8,.17.91.3,1.64.4,2.19A5.42,5.42,0,0,1,179.26,420.84Z"/><path class="cls-6" d="M235.53,295c0,.14-11.27,1-25.18,1.92s-25.21,1.54-25.22,1.4,11.26-1,25.19-1.92S235.52,294.8,235.53,295Z"/></g><g id="Plants"><path class="cls-5" d="M31.76,395a4.18,4.18,0,0,1,.19-.46c.16-.33.36-.76.62-1.32a32.57,32.57,0,0,0,1.82-5.28c1.2-4.7,1.62-11.87-.15-20.4a109.2,109.2,0,0,0-3.79-13.7c-1.6-4.86-3.46-10-5-15.6A60.35,60.35,0,0,1,23,320.26c.23-6.35,2.11-12.68,4.18-19s4.19-12.49,4.83-18.69a28.55,28.55,0,0,0-3.43-17.27c-2.73-5-6.17-9.34-8.75-13.8a47.93,47.93,0,0,1-5.25-13.28,49.43,49.43,0,0,1-.34-20.56,38.43,38.43,0,0,1,2.15-7.26,2.72,2.72,0,0,1-.13.48c-.11.34-.25.8-.43,1.39a53.1,53.1,0,0,0-1.34,5.44A50.07,50.07,0,0,0,15,238.14a48.15,48.15,0,0,0,5.27,13.1c2.57,4.41,6,8.7,8.81,13.8a29,29,0,0,1,3.54,17.61c-.65,6.31-2.79,12.52-4.85,18.83s-3.92,12.56-4.16,18.8A60.44,60.44,0,0,0,26.05,338c1.5,5.55,3.34,10.71,4.92,15.59a108.81,108.81,0,0,1,3.72,13.78c1.73,8.59,1.24,15.84,0,20.55a30.33,30.33,0,0,1-2,5.28L32,394.52A2.1,2.1,0,0,1,31.76,395Z"/><path class="cls-7" d="M23.34,255.92s-5.23-16.72,4.15-26.5a.57.57,0,0,1,1,.28C29,232.46,29.61,240.87,23.34,255.92Z"/><path class="cls-5" d="M26.47,235a15.28,15.28,0,0,1-.35,3.09c-.34,2.12-.75,4.62-1.19,7.37s-.84,5.25-1.17,7.37a16.21,16.21,0,0,1-.56,3.05,13.43,13.43,0,0,1,.1-3.1c.17-1.91.51-4.54,1-7.42s1-5.49,1.38-7.36A14.09,14.09,0,0,1,26.47,235Z"/><path class="cls-7" d="M29.48,295.34s3.2-17.22,16.06-21.48a.58.58,0,0,1,.75.71C45.44,277.25,42.06,285,29.48,295.34Z"/><path class="cls-5" d="M42,278.3a14.76,14.76,0,0,1-1.76,2.56c-1.29,1.72-2.82,3.74-4.5,6l-4.48,6a16.1,16.1,0,0,1-1.92,2.44,13.33,13.33,0,0,1,1.54-2.7c1-1.61,2.57-3.78,4.34-6.1s3.43-4.39,4.66-5.85A14.34,14.34,0,0,1,42,278.3Z"/><path class="cls-7" d="M26,338.54s-1.94-17.41,9.13-25.23a.58.58,0,0,1,.92.48C36,316.59,35,325,26,338.54Z"/><path class="cls-5" d="M33.07,318.59a15.28,15.28,0,0,1-.93,3c-.74,2-1.62,4.39-2.58,7s-1.82,5-2.55,7a17.49,17.49,0,0,1-1.13,2.89,12.93,12.93,0,0,1,.68-3c.54-1.84,1.37-4.36,2.39-7.1s2-5.19,2.76-6.95A13.6,13.6,0,0,1,33.07,318.59Z"/><path class="cls-7" d="M35.7,382s-1.32-17.47,10-24.88a.58.58,0,0,1,.9.5C46.49,360.41,45.2,368.75,35.7,382Z"/><path class="cls-5" d="M43.47,362.3a14.83,14.83,0,0,1-1,2.93l-2.82,6.91-2.81,6.92a16.13,16.13,0,0,1-1.23,2.85,13,13,0,0,1,.8-3c.6-1.82,1.52-4.3,2.63-7s2.19-5.12,3-6.85A14.57,14.57,0,0,1,43.47,362.3Z"/><path class="cls-7" d="M15.83,241.23S.3,233.12,0,219.57a.58.58,0,0,1,.91-.5C3.21,220.67,9.61,226.17,15.83,241.23Z"/><path class="cls-5" d="M3.22,224.23a14.36,14.36,0,0,1,1.94,2.43l4.37,6.05c1.65,2.25,3.13,4.3,4.4,6a16.28,16.28,0,0,1,1.76,2.55A12.82,12.82,0,0,1,13.56,239c-1.23-1.47-2.85-3.57-4.56-5.94s-3.19-4.56-4.22-6.17A14.36,14.36,0,0,1,3.22,224.23Z"/><path class="cls-7" d="M32.5,277.13s-16-7.15-17.12-20.66a.58.58,0,0,1,.88-.55C18.66,257.37,25.37,262.47,32.5,277.13Z"/><path class="cls-5" d="M18.88,260.92A15.05,15.05,0,0,1,21,263.23L25.7,269c1.77,2.16,3.38,4.1,4.75,5.76a17.19,17.19,0,0,1,1.92,2.44,13.09,13.09,0,0,1-2.27-2.13c-1.32-1.4-3.06-3.39-4.91-5.65s-3.46-4.36-4.59-5.91A13.5,13.5,0,0,1,18.88,260.92Z"/><path class="cls-7" d="M23.3,317.17s-11-13.65-5.83-26.18a.58.58,0,0,1,1-.1C20,293.28,23.63,300.87,23.3,317.17Z"/><path class="cls-5" d="M18.56,296.54a15.65,15.65,0,0,1,.8,3c.46,2.1,1,4.57,1.59,7.3s1.14,5.19,1.6,7.29a16.26,16.26,0,0,1,.6,3,12.66,12.66,0,0,1-1-2.93c-.53-1.84-1.18-4.4-1.79-7.26s-1.1-5.46-1.41-7.35A13.94,13.94,0,0,1,18.56,296.54Z"/><path class="cls-7" d="M34.17,364.29s-15.86-7.42-16.76-20.94a.58.58,0,0,1,.88-.54C20.66,344.3,27.29,349.51,34.17,364.29Z"/><path class="cls-5" d="M20.83,347.86a14.58,14.58,0,0,1,2,2.34l4.64,5.85,4.65,5.84A16.27,16.27,0,0,1,34,364.36a14.07,14.07,0,0,1-2.23-2.17c-1.29-1.42-3-3.44-4.81-5.73s-3.39-4.42-4.5-6A15,15,0,0,1,20.83,347.86Z"/><path class="cls-5" d="M65.77,295.43a1.25,1.25,0,0,1,0,.39c0,.3,0,.67,0,1.12,0,1.05-.11,2.47-.19,4.25-.21,3.73-.49,8.93-.83,15.16v0c-1.13,6.33-4.36,13.36-8.69,20.18-3.18,5-6.52,9.59-9.39,13.84a97,97,0,0,0-7,11.63,49.45,49.45,0,0,0-3.29,8.54c-.28,1.05-.49,1.86-.61,2.42a4.29,4.29,0,0,1-.23.84,3.48,3.48,0,0,1,.1-.86c.08-.57.25-1.4.49-2.46a45.35,45.35,0,0,1,3.12-8.68,93.93,93.93,0,0,1,7-11.77c2.85-4.28,6.17-8.85,9.33-13.85,4.32-6.79,7.53-13.7,8.7-19.94v0c.43-6.22.8-11.42,1.06-15.15.14-1.77.26-3.19.34-4.24,0-.45.08-.81.12-1.12A2,2,0,0,1,65.77,295.43Z"/><path class="cls-7" d="M56.33,335.26s6.72-16.17-1.74-26.76a.57.57,0,0,0-1,.19C52.83,311.4,51.45,319.71,56.33,335.26Z"/><path class="cls-5" d="M55.1,314.13a14,14,0,0,1,.54,3.06c.23,1.9.5,4.54.71,7.45s.31,5.56.31,7.48a13.48,13.48,0,0,1-.19,3.1,16.58,16.58,0,0,1-.28-3.08c-.14-2.15-.31-4.67-.5-7.45s-.37-5.31-.52-7.45A16.24,16.24,0,0,1,55.1,314.13Z"/><g class="cls-3"><path d="M56.33,335.26s6.72-16.17-1.74-26.76a.57.57,0,0,0-1,.19C52.83,311.4,51.45,319.71,56.33,335.26Z"/></g><path class="cls-7" d="M35.52,374.24s5.38-16.67-3.9-26.54a.58.58,0,0,0-1,.28C30.09,350.73,29.39,359.13,35.52,374.24Z"/><path class="cls-5" d="M32.58,353.28a13.67,13.67,0,0,1,.78,3c.39,1.88.87,4.48,1.32,7.37s.75,5.52.91,7.43a12.58,12.58,0,0,1,.06,3.11,18.28,18.28,0,0,1-.52-3.06c-.32-2.13-.69-4.62-1.1-7.38s-.8-5.26-1.12-7.39A15.06,15.06,0,0,1,32.58,353.28Z"/><g class="cls-3"><path d="M35.52,374.24s5.38-16.67-3.9-26.54a.58.58,0,0,0-1,.28C30.09,350.73,29.39,359.13,35.52,374.24Z"/></g><path class="cls-7" d="M64.88,315.5s14.35-10,12.9-23.52a.58.58,0,0,0-1-.38C74.74,293.48,69.11,299.76,64.88,315.5Z"/><g class="cls-3"><path d="M64.88,315.5s14.35-10,12.9-23.52a.58.58,0,0,0-1-.38C74.74,293.48,69.11,299.76,64.88,315.5Z"/></g><path class="cls-5" d="M75.19,297A14.57,14.57,0,0,1,74,299.88c-.82,1.73-2,4.09-3.4,6.67s-2.72,4.86-3.75,6.47A12.5,12.5,0,0,1,65,315.54a17,17,0,0,1,1.43-2.75L70,306.23c1.33-2.45,2.54-4.67,3.56-6.56A15.57,15.57,0,0,1,75.19,297Z"/><path class="cls-7" d="M41.3,357.72s17.3-2.7,21.94-15.44a.58.58,0,0,0-.7-.76C59.85,342.29,52,345.44,41.3,357.72Z"/><g class="cls-3"><path d="M41.3,357.72s17.3-2.7,21.94-15.44a.58.58,0,0,0-.7-.76C59.85,342.29,52,345.44,41.3,357.72Z"/></g><path class="cls-5" d="M58.69,345.66a13.9,13.9,0,0,1-2.33,2c-1.5,1.19-3.6,2.79-6,4.49s-4.59,3.16-6.23,4.16a12.93,12.93,0,0,1-2.74,1.46A15.54,15.54,0,0,1,43.9,356l6.1-4.31,6.08-4.32A15.73,15.73,0,0,1,58.69,345.66Z"/><polygon class="cls-6" points="20.83 389.56 25.79 422.12 45.61 422.09 52.29 389.56 20.83 389.56"/><path class="cls-5" d="M49.38,402.12s-.05.05-.16.12a4.64,4.64,0,0,1-.52.3,7.49,7.49,0,0,1-2.22.66,8.1,8.1,0,0,1-3.64-.34A7.53,7.53,0,0,1,38.92,400a5.52,5.52,0,0,1-.92-2.72,3,3,0,0,1,1.34-2.8,3.19,3.19,0,0,1,3.32.28,4.8,4.8,0,0,1,1.9,3,12.46,12.46,0,0,1,.25,3.67,12.17,12.17,0,0,1-.8,3.76,8.31,8.31,0,0,1-2.3,3.28,6.38,6.38,0,0,1-3.82,1.59,6.91,6.91,0,0,1-4-1.15,12,12,0,0,1-3-2.67,6.4,6.4,0,0,1-1.5-3.58,4.13,4.13,0,0,1,1.4-3.45,3.25,3.25,0,0,1,3.52-.21,3.74,3.74,0,0,1,2,2.65,5.09,5.09,0,0,1-2.5,5.15,7,7,0,0,1-4.79.7,11,11,0,0,1-3.41-1.34,18.32,18.32,0,0,1-1.91-1.29,4.48,4.48,0,0,1-.61-.52,5.08,5.08,0,0,1,.68.43c.43.29,1.07.72,1.94,1.2a11.28,11.28,0,0,0,3.36,1.22,6.75,6.75,0,0,0,4.54-.73A4.7,4.7,0,0,0,36,401.74a3.29,3.29,0,0,0-1.8-2.32,2.75,2.75,0,0,0-3,.18,3.69,3.69,0,0,0-1.2,3,6.08,6.08,0,0,0,1.4,3.28,11.48,11.48,0,0,0,2.83,2.54,6.45,6.45,0,0,0,3.66,1.07,5.94,5.94,0,0,0,3.49-1.46A7.83,7.83,0,0,0,43.51,405a11.5,11.5,0,0,0,.78-3.59,12.13,12.13,0,0,0-.21-3.53,4.38,4.38,0,0,0-1.68-2.71,2.78,2.78,0,0,0-2.83-.28,2.54,2.54,0,0,0-1.15,2.39,5.16,5.16,0,0,0,.82,2.53,7.34,7.34,0,0,0,3.69,2.77,8.05,8.05,0,0,0,3.53.42A8.91,8.91,0,0,0,49.38,402.12Z"/><path class="cls-7" d="M560.91,394.76c-7.85-4.55-12-15.13-12.36-23.79s3.29-17.69,10.4-22.65c7.48-5.23,18.13-5.14,25.82-.22s12.18,14.21,11.84,23.33a31,31,0,0,1-12.67,23.24"/><path class="cls-2" d="M573.43,395.6a10.59,10.59,0,0,1-.15-2c0-1.42-.09-3.23-.15-5.4-.12-4.56-.3-10.86-.6-17.81s-.68-13.24-1-17.8c-.13-2.16-.23-4-.32-5.39a10.15,10.15,0,0,1,0-2,10.81,10.81,0,0,1,.32,2c.15,1.26.34,3.1.55,5.37.42,4.55.88,10.84,1.18,17.81s.41,13.26.39,17.83c0,2.28,0,4.13-.08,5.41A10.2,10.2,0,0,1,573.43,395.6Z"/><path class="cls-5" d="M550.87,369c0,.21-1.27.27-2.79.14s-2.75-.39-2.74-.59,1.27-.27,2.8-.14S550.89,368.81,550.87,369Z"/><path class="cls-5" d="M551.3,361.24c-.08.19-1.16-.11-2.41-.66s-2.19-1.16-2.11-1.34,1.16.11,2.41.66S551.38,361.06,551.3,361.24Z"/><path class="cls-5" d="M555.3,355.48c-.11.16-1.32-.41-2.58-1.45s-2.05-2.13-1.91-2.27,1.15.69,2.38,1.7S555.41,355.3,555.3,355.48Z"/><path class="cls-5" d="M559.32,350c-.19.08-.77-.83-1.3-2s-.81-2.25-.62-2.33.76.83,1.29,2S559.51,350,559.32,350Z"/><path class="cls-5" d="M565.63,346.17c-.18.09-.81-.88-1.22-2.22s-.46-2.49-.26-2.52.55,1,1,2.3S565.82,346.09,565.63,346.17Z"/><path class="cls-5" d="M576.15,341.82c.2.07.08.9-.26,1.85s-.76,1.66-.95,1.6-.08-.9.26-1.85S576,341.75,576.15,341.82Z"/><path class="cls-5" d="M584,345.17c.14.15-.36.84-1.12,1.54s-1.48,1.14-1.62,1,.37-.83,1.12-1.53S583.82,345,584,345.17Z"/><path class="cls-5" d="M590.83,349.61c.12.17-.49.78-1.36,1.37s-1.66.93-1.78.76.5-.78,1.37-1.37S590.72,349.44,590.83,349.61Z"/><path class="cls-5" d="M595.72,356.23c.07.19-.89.78-2.15,1.32s-2.36.82-2.44.64.88-.78,2.15-1.32S595.64,356,595.72,356.23Z"/><path class="cls-5" d="M597.64,363.45c0,.2-1,.48-2.19.64s-2.25.11-2.28-.09,1-.49,2.19-.64S597.61,363.25,597.64,363.45Z"/><path class="cls-5" d="M598.64,372.33c-.08.19-1.13-.09-2.33-.61s-2.12-1.1-2-1.29,1.12.09,2.33.62S598.72,372.15,598.64,372.33Z"/><path class="cls-5" d="M597.76,380c-.07.18-1.39-.13-2.77-1s-2.2-2-2-2.11,1.15.65,2.46,1.5S597.83,379.76,597.76,380Z"/><path class="cls-5" d="M593.79,386.9c-.12.15-1.17-.46-2.18-1.55s-1.55-2.18-1.39-2.29,1,.75,1.93,1.79S593.92,386.73,593.79,386.9Z"/><path class="cls-5" d="M556.09,387.71c.1.18-1,.94-2.46,1.7s-2.71,1.22-2.8,1,1-.94,2.46-1.69S556,387.53,556.09,387.71Z"/><path class="cls-5" d="M552.65,381.43c.08.19-.8.77-2,1.3s-2.2.82-2.28.63.8-.76,2-1.3S552.57,381.25,552.65,381.43Z"/><path class="cls-5" d="M550.12,375.87c0,.2-1.06.53-2.43.72s-2.51.19-2.54,0,1.06-.52,2.44-.72S550.09,375.67,550.12,375.87Z"/><path class="cls-5" d="M558.42,372.81c.06.19-1,.68-2.42.84s-2.56-.08-2.54-.28,1.12-.29,2.46-.45S558.36,372.61,558.42,372.81Z"/><path class="cls-5" d="M565.32,366c.06.19-.79.61-1.93.72s-2-.14-2-.33.9-.29,2-.4S565.26,365.75,565.32,366Z"/><path class="cls-5" d="M566.64,360.45c-.07.19-1,.05-2-.32s-1.87-.82-1.8-1,1-.05,2,.32S566.7,360.26,566.64,360.45Z"/><path class="cls-5" d="M569.16,354.89c-.14.14-.77-.27-1.21-1.05s-.5-1.53-.31-1.58.54.52.94,1.21S569.31,354.75,569.16,354.89Z"/><path class="cls-5" d="M566.12,377.65c0,.2-.75.56-1.77.81a6.66,6.66,0,0,1-1.49.22l-.14-.43c.26-.05.43,0,.47,0s-.08.21-.29.38l-.15-.43a6.39,6.39,0,0,1,1.42-.49C565.2,377.5,566.07,377.45,566.12,377.65Z"/><path class="cls-5" d="M567.54,387.39c.07.19-.94.77-2.26,1.29s-2.45.78-2.52.59.93-.76,2.25-1.28S567.46,387.21,567.54,387.39Z"/><path class="cls-5" d="M559.75,383.07c.06.19-.61.59-1.51.9s-1.67.39-1.74.2.61-.59,1.5-.9S559.68,382.87,559.75,383.07Z"/><path class="cls-5" d="M560.34,363.23c0,.19-1.22.08-2.57-.4s-2.34-1.13-2.26-1.31,1.19.15,2.5.61S560.39,363,560.34,363.23Z"/><path class="cls-5" d="M579.19,361.07c.12.17-.54.8-1.47,1.42s-1.77,1-1.88.79.55-.8,1.47-1.41S579.08,360.9,579.19,361.07Z"/><path class="cls-5" d="M580.22,370.86c0,.2-.65.51-1.55.7s-1.66.17-1.7,0,.65-.51,1.55-.69S580.18,370.66,580.22,370.86Z"/><path class="cls-5" d="M581.41,381.86c-.09.19-1.08-.09-2.23-.63s-2-1.11-1.92-1.29,1.08.1,2.23.63S581.5,381.68,581.41,381.86Z"/><path class="cls-5" d="M578.89,392.58c-.16.13-.81-.4-1.45-1.19s-1-1.52-.88-1.65.8.4,1.45,1.19S579.05,392.45,578.89,392.58Z"/><path class="cls-5" d="M578.37,353.87c.13.15-.3.69-1,1.06s-1.42.39-1.47.2.48-.52,1.14-.86S578.25,353.7,578.37,353.87Z"/><path class="cls-5" d="M587.61,363.74c.07.18-.79.65-2,.81s-2.12-.05-2.11-.25.91-.32,2-.47S587.54,363.54,587.61,363.74Z"/><path class="cls-5" d="M585.77,354.88c.09.17-.76.78-2,1.16s-2.25.39-2.28.19.91-.52,2.05-.89S585.68,354.69,585.77,354.88Z"/><path class="cls-5" d="M589.63,377.46c0,.2-1.46.33-3.21,0s-3.06-1-3-1.13,1.44.1,3.13.4S589.63,377.25,589.63,377.46Z"/><path class="cls-5" d="M586.2,390.33c-.13.16-1.2-.47-2.26-1.54s-1.69-2.15-1.54-2.27,1,.71,2.06,1.75S586.32,390.17,586.2,390.33Z"/><path class="cls-2" d="M571.1,344.4a33.4,33.4,0,0,0-6.44,5.09,31.42,31.42,0,0,0-8,17.75,39.92,39.92,0,0,0,.48,10.87,84.52,84.52,0,0,0,2,8.72c.71,2.46,1.35,4.43,1.79,5.79a14.92,14.92,0,0,1,.62,2.14,11.68,11.68,0,0,1-.89-2c-.52-1.34-1.24-3.29-2-5.74a72.15,72.15,0,0,1-2.2-8.75,38.9,38.9,0,0,1-.55-11.08,30.94,30.94,0,0,1,8.38-18,22.58,22.58,0,0,1,4.81-3.75,16,16,0,0,1,1.47-.77A1.8,1.8,0,0,1,571.1,344.4Z"/><path class="cls-2" d="M581.12,395.23a75.4,75.4,0,0,0,3.31-7.89,44.61,44.61,0,0,0,2-20.3,38.27,38.27,0,0,0-3.13-10.83,25.6,25.6,0,0,0-5.33-7.43,19.69,19.69,0,0,0-5.23-3.31c-1.36-.56-2.18-.7-2.17-.76a2,2,0,0,1,.6.05,10.77,10.77,0,0,1,1.67.45,17.92,17.92,0,0,1,5.47,3.18,25.28,25.28,0,0,1,5.61,7.53,37.75,37.75,0,0,1,3.24,11,43,43,0,0,1-2.21,20.57c-.42,1.27-.95,2.36-1.35,3.34s-.86,1.77-1.22,2.42A12.62,12.62,0,0,1,581.12,395.23Z"/><polygon class="cls-5" points="552.65 393.5 593.17 393.5 593.42 401.61 552.65 401.61 552.65 393.5"/><polygon class="cls-5" points="556.09 397.55 558.42 422.31 588.04 422.31 590.42 397.82 556.09 397.55"/><path class="cls-6" d="M593.42,401.7c0,.21-9.12.37-20.38.37s-20.38-.16-20.38-.37,9.12-.36,20.38-.36S593.42,401.5,593.42,401.7Z"/><path class="cls-6" d="M589.3,409.25a6.08,6.08,0,0,1-.86,1.54,22.5,22.5,0,0,1-3.15,3.71l-.18.18-.19-.19a57.67,57.67,0,0,0-7.94-6.95l.45,0-3.52,3.09-4.16,3.62-.23.2-.23-.19-6.77-5.69.39,0-3.5,4.27a9.57,9.57,0,0,1-1.37,1.5,10,10,0,0,1,1.13-1.69l3.31-4.42.17-.23.22.18,6.87,5.57h-.46l4.14-3.65L577,407l.21-.19.23.17a51.76,51.76,0,0,1,7.91,7.17h-.37A41.22,41.22,0,0,0,589.3,409.25Z"/></g><g id="Pantone"><path class="cls-18" d="M453.6,63.82l11.48,11.95a2,2,0,0,0,2.83.09L513.61,32a2,2,0,0,0,0-2.82l-11.48-12a2,2,0,0,0-2.83-.09L453.62,61A2,2,0,0,0,453.6,63.82Z"/><path class="cls-5" d="M453.6,63.82a1.92,1.92,0,0,1-.29-.34,2.14,2.14,0,0,1-.31-1.27,2,2,0,0,1,.32-.92,6.93,6.93,0,0,1,.8-.85l2.08-2,13.29-12.84,19.74-19,5.71-5.49,2.94-2.84c.51-.48,1-1,1.53-1.44a2.17,2.17,0,0,1,2.16-.23,2.67,2.67,0,0,1,.88.67l.73.77c.49.51,1,1,1.48,1.54l3,3.11L513.76,29a2.19,2.19,0,0,1-.17,3.21l-.79.77-3.16,3L503.46,42,491.78,53.16,472,72.12,468,76a2.09,2.09,0,0,1-2.5.24,4.59,4.59,0,0,1-.91-.84l-.82-.86-5.49-5.75-3.45-3.64c-.39-.42-.69-.73-.89-1s-.3-.33-.3-.33l.32.31c.22.21.52.52.92.93l3.5,3.6c1.52,1.57,3.38,3.48,5.53,5.71l.82.85a4.72,4.72,0,0,0,.88.8,1.87,1.87,0,0,0,2.24-.22l4-3.86,19.74-19L503.22,41.7l6.18-5.93,3.15-3,.8-.76a2,2,0,0,0,.58-.83,1.88,1.88,0,0,0-.42-1.89Q510.41,26,507.4,22.9l-3-3.12-1.48-1.53-.73-.77a2.3,2.3,0,0,0-.77-.6,1.83,1.83,0,0,0-1.82.19c-.49.43-1,.95-1.49,1.41l-2.95,2.84-5.72,5.48-19.79,19L456.29,58.52l-2.1,2a6.77,6.77,0,0,0-.8.82,2,2,0,0,0-.32.88,2.11,2.11,0,0,0,.27,1.24C453.5,63.71,453.61,63.81,453.6,63.82Z"/><rect class="cls-7" x="496.09" y="20.35" width="11.58" height="16.89" transform="translate(122.1 358.15) rotate(-44.22)"/><rect class="cls-7" x="469.06" y="46.65" width="11.58" height="16.89" transform="translate(96.09 346.75) rotate(-44.22)"/><rect class="cls-7" x="478.08" y="37.88" width="11.58" height="16.89" transform="translate(104.77 350.56) rotate(-44.22)"/><rect class="cls-7" x="487.11" y="29.09" width="11.58" height="16.89" transform="translate(113.46 354.37) rotate(-44.22)"/><g class="cls-19"><rect x="496.09" y="20.35" width="11.58" height="16.89" transform="translate(122.1 358.15) rotate(-44.22)"/></g><g class="cls-20"><rect x="469.06" y="46.65" width="11.58" height="16.89" transform="translate(96.09 346.75) rotate(-44.22)"/></g><g class="cls-21"><rect x="478.08" y="37.88" width="11.58" height="16.89" transform="translate(104.77 350.56) rotate(-44.22)"/></g><g class="cls-15"><rect x="487.11" y="29.09" width="11.58" height="16.89" transform="translate(113.46 354.37) rotate(-44.22)"/></g><path class="cls-18" d="M454.37,61.77l8,14.51a2,2,0,0,0,2.69.83l54.66-30.23a2,2,0,0,0,.73-2.71l-8-14.51a2,2,0,0,0-2.69-.82L455.1,59.06A2,2,0,0,0,454.37,61.77Z"/><path class="cls-5" d="M454.37,61.77a1.65,1.65,0,0,1-.19-.4,2.11,2.11,0,0,1,0-1.28,2,2,0,0,1,.53-.81,5.84,5.84,0,0,1,1-.61l2.5-1.4,16-8.89,23.7-13.15,6.85-3.8,3.54-2,.9-.5a4.75,4.75,0,0,1,1-.46,2.14,2.14,0,0,1,2.08.55,3.76,3.76,0,0,1,.61.9l.5.91,1,1.85c.69,1.23,1.38,2.48,2.07,3.73,1.39,2.51,2.79,5.06,4.22,7.63a2.16,2.16,0,0,1-1,3l-.95.53-3.8,2.09-7.41,4.1-14,7.74L469.76,74.66c-1.7.93-3.28,1.82-4.84,2.65a2.12,2.12,0,0,1-2.41-.66c-.46-.72-.79-1.41-1.18-2.09l-3.78-6.89c-1-1.89-1.82-3.36-2.37-4.36l-.61-1.14c-.14-.26-.2-.4-.2-.4l.23.38c.15.26.36.64.64,1.12l2.43,4.33c1.06,1.89,2.34,4.2,3.83,6.87.38.66.74,1.39,1.18,2a1.88,1.88,0,0,0,2.15.58c1.51-.81,3.12-1.73,4.81-2.66l23.7-13.15,14-7.75,7.41-4.1,3.79-2.1,1-.53a1.78,1.78,0,0,0,.76-.64,1.86,1.86,0,0,0,0-1.92l-4.21-7.63c-.7-1.25-1.39-2.5-2.07-3.73L513,31l-.5-.92a3.56,3.56,0,0,0-.55-.82,1.83,1.83,0,0,0-1.75-.46,4.19,4.19,0,0,0-.88.43l-.9.5-3.54,1.95L498,35.51,474.29,48.59l-16,8.8-2.52,1.37a5.78,5.78,0,0,0-1,.59,1.82,1.82,0,0,0-.52.76,2,2,0,0,0,0,1.25A4.06,4.06,0,0,0,454.37,61.77Z"/><rect class="cls-7" x="502.71" y="33.23" width="11.58" height="16.89" transform="translate(44.58 254.02) rotate(-29.28)"/><rect class="cls-7" x="469.81" y="51.68" width="11.58" height="16.89" transform="translate(31.36 240.29) rotate(-29.28)"/><rect class="cls-7" x="480.78" y="45.52" width="11.58" height="16.89" transform="translate(35.77 244.87) rotate(-29.28)"/><rect class="cls-7" x="491.77" y="39.36" width="11.58" height="16.89" transform="translate(40.19 249.46) rotate(-29.28)"/><g class="cls-20"><rect x="502.71" y="33.23" width="11.58" height="16.89" transform="translate(44.58 254.02) rotate(-29.28)"/></g><g class="cls-13"><rect x="469.81" y="51.68" width="11.58" height="16.89" transform="translate(31.36 240.29) rotate(-29.28)"/></g><g class="cls-3"><rect x="480.78" y="45.52" width="11.58" height="16.89" transform="translate(35.77 244.87) rotate(-29.28)"/></g><g class="cls-14"><rect x="491.77" y="39.36" width="11.58" height="16.89" transform="translate(40.19 249.46) rotate(-29.28)"/></g><path class="cls-18" d="M452.36,61.64l3.54,16.2a2,2,0,0,0,2.43,1.54l64.11-14A2,2,0,0,0,524,63l-3.53-16.19A2,2,0,0,0,518,45.22l-64.12,14A2,2,0,0,0,452.36,61.64Z"/><path class="cls-5" d="M452.36,61.64a1.46,1.46,0,0,1-.07-.45,2.05,2.05,0,0,1,1.23-1.87,8.88,8.88,0,0,1,1.16-.31l2.91-.65,18.54-4.11,27.5-6,7.95-1.74,4.1-.9,2.09-.46A2.66,2.66,0,0,1,518.9,45a2.31,2.31,0,0,1,1,.51,2.2,2.2,0,0,1,.64,1c.1.38.16.71.24,1.08.16.71.32,1.42.47,2.14.32,1.43.63,2.87,1,4.33q1,4.36,1.93,8.84a2.2,2.2,0,0,1-.81,2.21,2.48,2.48,0,0,1-1.11.47l-1.11.24-4.39,1-8.6,1.87L491.9,72.2l-27.52,6-5.58,1.21c-.23,0-.44.1-.67.13a2.34,2.34,0,0,1-.7,0,2.1,2.1,0,0,1-1.15-.67,2.22,2.22,0,0,1-.53-1.18c-.09-.4-.17-.8-.26-1.19-.67-3.11-1.24-5.79-1.71-8s-.83-3.89-1.07-5q-.18-.85-.27-1.32c-.06-.29-.08-.45-.08-.45s0,.15.11.45.17.74.31,1.3c.26,1.17.64,2.86,1.13,5s1.08,4.87,1.77,8l.27,1.19a2.16,2.16,0,0,0,.48,1.08,1.92,1.92,0,0,0,1.05.6,2.66,2.66,0,0,0,1.27-.1l5.58-1.23,27.5-6,16.25-3.56,8.59-1.88,4.4-1,1.11-.25a2.14,2.14,0,0,0,1-.39,1.85,1.85,0,0,0,.68-1.86q-1-4.49-1.93-8.85c-.32-1.45-.63-2.9-.94-4.33-.16-.72-.32-1.43-.47-2.14-.08-.35-.15-.73-.24-1.05a1.79,1.79,0,0,0-.54-.81,1.93,1.93,0,0,0-1.87-.37l-2.08.45-4.11.9-7.95,1.73-27.52,6-18.56,4-2.91.62a7.71,7.71,0,0,0-1.15.29,2,2,0,0,0-.77.57,2,2,0,0,0-.46,1.22C452.33,61.49,452.37,61.64,452.36,61.64Z"/><path class="cls-5" d="M452.22,61.71c0,.06-.8,0-2.21.27a11.84,11.84,0,0,0-5.38,2.56,11.45,11.45,0,0,0-4,7.65A11.19,11.19,0,0,0,454.78,84a11.18,11.18,0,0,0,6.83-5.25A11.58,11.58,0,0,0,463.17,73c0-.36,0-.67,0-.95s-.06-.51-.08-.7a2.32,2.32,0,0,1,0-.58,1.72,1.72,0,0,1,.16.56,6.39,6.39,0,0,1,.14.69c0,.29.06.61.1,1A11.35,11.35,0,0,1,462,79a11.66,11.66,0,0,1-2.71,3.33,11.77,11.77,0,0,1-15.13,0,12.11,12.11,0,0,1-2-2.2,11.77,11.77,0,0,1-1.38-2.56,11.66,11.66,0,0,1,.75-10.12,12.12,12.12,0,0,1,2.79-3.28A11.69,11.69,0,0,1,450,61.71a10.89,10.89,0,0,1,1.67-.08A1.64,1.64,0,0,1,452.22,61.71Z"/><path class="cls-5" d="M464.92,68.21a2.53,2.53,0,1,1-3-1.93A2.54,2.54,0,0,1,464.92,68.21Z"/><rect class="cls-7" x="508.86" y="48.43" width="11.58" height="16.89" transform="translate(-0.28 111.19) rotate(-12.33)"/><rect class="cls-7" x="496.61" y="51.1" width="11.58" height="16.89" transform="translate(-1.13 108.63) rotate(-12.33)"/><rect class="cls-7" x="484.31" y="53.79" width="11.58" height="16.89" transform="translate(-1.99 106.07) rotate(-12.33)"/><rect class="cls-7" x="472.01" y="56.48" width="11.58" height="16.89" transform="translate(-2.84 103.51) rotate(-12.33)"/><g class="cls-19"><rect class="cls-2" x="472.01" y="56.48" width="11.58" height="16.89" transform="translate(-2.84 103.51) rotate(-12.33)"/></g><g class="cls-21"><rect class="cls-2" x="484.31" y="53.79" width="11.58" height="16.89" transform="translate(-1.99 106.07) rotate(-12.33)"/></g><g class="cls-14"><rect class="cls-2" x="496.61" y="51.1" width="11.58" height="16.89" transform="translate(-1.13 108.63) rotate(-12.33)"/></g></g><g id="Arrow"><polygon class="cls-5" points="168.59 29.29 171.72 45.92 174.3 41.28 179.83 49.56 182.6 47.7 177.06 39.41 182.14 38.63 168.59 29.29"/></g></g></svg>